<svg width="44" height="58" viewBox="0 0 44 58" fill="none" xmlns="http://www.w3.org/2000/svg">
<path d="M8.98521 15.4981C8.98521 15.4981 6.85958 26.1737 7.84521 29.1187C7.84521 29.1187 9.15146 12.9688 21.7033 0.5C21.7033 0.5 21.2996 10.9381 27.819 16.2344C34.3383 21.5306 35.8108 29.7719 35.8108 29.7719C35.8108 29.7719 36.5471 24.1431 34.3383 15.13C34.3383 15.13 48.1965 29.5225 41.8433 45.5894C41.8433 45.5894 34.184 63.2831 12.2508 55.5406C-9.68229 47.7981 5.06646 18.2769 8.98521 15.4981Z" fill="#FF8500"/>
<path d="M32.3903 29.1426C32.5921 33.667 30.5496 34.8545 28.899 35.092C27.8421 35.2463 26.7734 34.9732 25.8471 34.4626C16.7628 29.5345 21.4296 17.4932 21.4296 17.4932C15.4803 23.1813 18.5796 34.997 18.5796 34.997C18.5796 34.997 20.4203 41.6945 16.6559 42.2763C14.7678 42.5732 13.889 41.8132 13.4853 40.9938C13.1171 40.2338 13.1171 39.3432 13.4378 38.5595C15.9909 32.2182 13.8059 28.632 13.8059 28.632C12.5828 32.2657 11.2884 34.6645 10.3503 36.1013C9.02027 38.1438 8.17715 40.4713 8.0584 42.9057C7.6309 51.9782 15.2309 55.6001 15.2309 55.6001C27.7115 61.9651 33.3165 50.3276 33.3165 50.3276C39.7646 37.9301 32.3903 29.1426 32.3903 29.1426Z" fill="#FCD870"/>
</svg>
