<svg width="169" height="169" viewBox="0 0 169 169" fill="none" xmlns="http://www.w3.org/2000/svg">
<rect width="169" height="169" fill="white" fill-opacity="0.01"/>
<path fill-rule="evenodd" clip-rule="evenodd" d="M154.917 84.4999C154.917 123.39 123.391 154.917 84.5006 154.917C45.6106 154.917 14.084 123.39 14.084 84.4999C14.084 45.6099 45.6106 14.0833 84.5006 14.0833C123.391 14.0833 154.917 45.6099 154.917 84.4999ZM66.0684 77.9436C66.9275 78.3126 67.7045 78.8491 68.3541 79.5216L77.459 88.6265L100.647 65.4383C101.297 64.7657 102.074 64.2293 102.933 63.8602C103.792 63.4912 104.716 63.2969 105.651 63.2888C106.586 63.2807 107.513 63.4588 108.379 63.8129C109.244 64.167 110.03 64.6898 110.691 65.351C111.353 66.0121 111.875 66.7984 112.229 67.6638C112.584 68.5292 112.762 69.4564 112.754 70.3914C112.745 71.3264 112.551 72.2504 112.182 73.1095C111.813 73.9686 111.277 74.7456 110.604 75.3952L82.4374 103.562C81.1169 104.882 79.3262 105.624 77.459 105.624C75.5918 105.624 73.801 104.882 72.4805 103.562L58.3972 89.4785C57.7246 88.8289 57.1882 88.0519 56.8191 87.1928C56.4501 86.3337 56.2558 85.4097 56.2477 84.4747C56.2396 83.5397 56.4177 82.6125 56.7718 81.7471C57.1259 80.8817 57.6487 80.0955 58.3099 79.4343C58.9711 78.7732 59.7573 78.2503 60.6227 77.8962C61.4881 77.5422 62.4153 77.364 63.3503 77.3721C64.2853 77.3802 65.2093 77.5745 66.0684 77.9436Z" fill="#21BF73"/>
</svg>
