<svg width="339" height="213" viewBox="0 0 339 213" fill="none" xmlns="http://www.w3.org/2000/svg">
<rect width="339" height="213" rx="8" fill="#EAF5FF"/>
<path d="M100.44 164.88L96.76 171.968V176H94.936V171.968L91.24 164.88H93.272L95.848 170.336L98.424 164.88H100.44ZM105.712 176.144C104.88 176.144 104.128 175.957 103.456 175.584C102.784 175.2 102.256 174.667 101.872 173.984C101.488 173.291 101.296 172.491 101.296 171.584C101.296 170.688 101.493 169.893 101.888 169.2C102.282 168.507 102.821 167.973 103.504 167.6C104.186 167.227 104.949 167.04 105.792 167.04C106.634 167.04 107.397 167.227 108.08 167.6C108.762 167.973 109.301 168.507 109.696 169.2C110.09 169.893 110.288 170.688 110.288 171.584C110.288 172.48 110.085 173.275 109.68 173.968C109.274 174.661 108.72 175.2 108.016 175.584C107.322 175.957 106.554 176.144 105.712 176.144ZM105.712 174.56C106.181 174.56 106.618 174.448 107.024 174.224C107.44 174 107.776 173.664 108.032 173.216C108.288 172.768 108.416 172.224 108.416 171.584C108.416 170.944 108.293 170.405 108.048 169.968C107.802 169.52 107.477 169.184 107.072 168.96C106.666 168.736 106.229 168.624 105.76 168.624C105.29 168.624 104.853 168.736 104.448 168.96C104.053 169.184 103.738 169.52 103.504 169.968C103.269 170.405 103.152 170.944 103.152 171.584C103.152 172.533 103.392 173.269 103.872 173.792C104.362 174.304 104.976 174.56 105.712 174.56ZM120.075 167.184V176H118.251V174.96C117.963 175.323 117.584 175.611 117.115 175.824C116.656 176.027 116.165 176.128 115.643 176.128C114.949 176.128 114.325 175.984 113.771 175.696C113.227 175.408 112.795 174.981 112.475 174.416C112.165 173.851 112.011 173.168 112.011 172.368V167.184H113.819V172.096C113.819 172.885 114.016 173.493 114.411 173.92C114.805 174.336 115.344 174.544 116.027 174.544C116.709 174.544 117.248 174.336 117.643 173.92C118.048 173.493 118.251 172.885 118.251 172.096V167.184H120.075ZM124.305 168.464C124.572 168.016 124.924 167.669 125.361 167.424C125.809 167.168 126.337 167.04 126.945 167.04V168.928H126.481C125.767 168.928 125.223 169.109 124.849 169.472C124.487 169.835 124.305 170.464 124.305 171.36V176H122.481V167.184H124.305V168.464ZM139.962 164.88V166.368H137.002V176H135.178V166.368H132.202V164.88H139.962ZM149.889 171.376C149.889 171.707 149.868 172.005 149.825 172.272H143.089C143.143 172.976 143.404 173.541 143.873 173.968C144.343 174.395 144.919 174.608 145.601 174.608C146.583 174.608 147.276 174.197 147.681 173.376H149.649C149.383 174.187 148.897 174.853 148.193 175.376C147.5 175.888 146.636 176.144 145.601 176.144C144.759 176.144 144.001 175.957 143.329 175.584C142.668 175.2 142.145 174.667 141.761 173.984C141.388 173.291 141.201 172.491 141.201 171.584C141.201 170.677 141.383 169.883 141.745 169.2C142.119 168.507 142.636 167.973 143.297 167.6C143.969 167.227 144.737 167.04 145.601 167.04C146.433 167.04 147.175 167.221 147.825 167.584C148.476 167.947 148.983 168.459 149.345 169.12C149.708 169.771 149.889 170.523 149.889 171.376ZM147.985 170.8C147.975 170.128 147.735 169.589 147.265 169.184C146.796 168.779 146.215 168.576 145.521 168.576C144.892 168.576 144.353 168.779 143.905 169.184C143.457 169.579 143.191 170.117 143.105 170.8H147.985ZM155.46 171.536L158.308 176H156.244L154.34 173.008L152.548 176H150.644L153.492 171.664L150.644 167.184H152.708L154.612 170.176L156.404 167.184H158.308L155.46 171.536ZM161.797 168.672V173.552C161.797 173.883 161.871 174.123 162.021 174.272C162.181 174.411 162.447 174.48 162.821 174.48H163.941V176H162.501C161.679 176 161.05 175.808 160.613 175.424C160.175 175.04 159.957 174.416 159.957 173.552V168.672H158.917V167.184H159.957V164.992H161.797V167.184H163.941V168.672H161.797ZM173.33 167.04C174.013 167.04 174.615 167.179 175.138 167.456C175.671 167.723 176.087 168.059 176.386 168.464V167.184H178.226V176.144C178.226 176.955 178.055 177.675 177.714 178.304C177.373 178.944 176.877 179.445 176.226 179.808C175.586 180.171 174.818 180.352 173.922 180.352C172.727 180.352 171.735 180.069 170.946 179.504C170.157 178.949 169.709 178.192 169.602 177.232H171.41C171.549 177.691 171.842 178.059 172.29 178.336C172.749 178.624 173.293 178.768 173.922 178.768C174.658 178.768 175.25 178.544 175.698 178.096C176.157 177.648 176.386 176.997 176.386 176.144V174.672C176.077 175.088 175.655 175.44 175.122 175.728C174.599 176.005 174.002 176.144 173.33 176.144C172.562 176.144 171.858 175.952 171.218 175.568C170.589 175.173 170.087 174.629 169.714 173.936C169.351 173.232 169.17 172.437 169.17 171.552C169.17 170.667 169.351 169.883 169.714 169.2C170.087 168.517 170.589 167.989 171.218 167.616C171.858 167.232 172.562 167.04 173.33 167.04ZM176.386 171.584C176.386 170.976 176.258 170.448 176.002 170C175.757 169.552 175.431 169.211 175.026 168.976C174.621 168.741 174.183 168.624 173.714 168.624C173.245 168.624 172.807 168.741 172.402 168.976C171.997 169.2 171.666 169.536 171.41 169.984C171.165 170.421 171.042 170.944 171.042 171.552C171.042 172.16 171.165 172.693 171.41 173.152C171.666 173.611 171.997 173.963 172.402 174.208C172.818 174.443 173.255 174.56 173.714 174.56C174.183 174.56 174.621 174.443 175.026 174.208C175.431 173.973 175.757 173.632 176.002 173.184C176.258 172.725 176.386 172.192 176.386 171.584ZM184.446 176.144C183.614 176.144 182.862 175.957 182.19 175.584C181.518 175.2 180.99 174.667 180.606 173.984C180.222 173.291 180.03 172.491 180.03 171.584C180.03 170.688 180.227 169.893 180.622 169.2C181.017 168.507 181.555 167.973 182.238 167.6C182.921 167.227 183.683 167.04 184.526 167.04C185.369 167.04 186.131 167.227 186.814 167.6C187.497 167.973 188.035 168.507 188.43 169.2C188.825 169.893 189.022 170.688 189.022 171.584C189.022 172.48 188.819 173.275 188.414 173.968C188.009 174.661 187.454 175.2 186.75 175.584C186.057 175.957 185.289 176.144 184.446 176.144ZM184.446 174.56C184.915 174.56 185.353 174.448 185.758 174.224C186.174 174 186.51 173.664 186.766 173.216C187.022 172.768 187.15 172.224 187.15 171.584C187.15 170.944 187.027 170.405 186.782 169.968C186.537 169.52 186.211 169.184 185.806 168.96C185.401 168.736 184.963 168.624 184.494 168.624C184.025 168.624 183.587 168.736 183.182 168.96C182.787 169.184 182.473 169.52 182.238 169.968C182.003 170.405 181.886 170.944 181.886 171.584C181.886 172.533 182.126 173.269 182.606 173.792C183.097 174.304 183.71 174.56 184.446 174.56ZM198.905 171.376C198.905 171.707 198.884 172.005 198.841 172.272H192.105C192.158 172.976 192.42 173.541 192.889 173.968C193.358 174.395 193.934 174.608 194.617 174.608C195.598 174.608 196.292 174.197 196.697 173.376H198.665C198.398 174.187 197.913 174.853 197.209 175.376C196.516 175.888 195.652 176.144 194.617 176.144C193.774 176.144 193.017 175.957 192.345 175.584C191.684 175.2 191.161 174.667 190.777 173.984C190.404 173.291 190.217 172.491 190.217 171.584C190.217 170.677 190.398 169.883 190.761 169.2C191.134 168.507 191.652 167.973 192.313 167.6C192.985 167.227 193.753 167.04 194.617 167.04C195.449 167.04 196.19 167.221 196.841 167.584C197.492 167.947 197.998 168.459 198.361 169.12C198.724 169.771 198.905 170.523 198.905 171.376ZM197.001 170.8C196.99 170.128 196.75 169.589 196.281 169.184C195.812 168.779 195.23 168.576 194.537 168.576C193.908 168.576 193.369 168.779 192.921 169.184C192.473 169.579 192.206 170.117 192.121 170.8H197.001ZM203.9 176.144C203.207 176.144 202.583 176.021 202.028 175.776C201.484 175.52 201.052 175.179 200.732 174.752C200.412 174.315 200.241 173.829 200.22 173.296H202.108C202.14 173.669 202.316 173.984 202.636 174.24C202.967 174.485 203.377 174.608 203.868 174.608C204.38 174.608 204.775 174.512 205.052 174.32C205.34 174.117 205.484 173.861 205.484 173.552C205.484 173.221 205.324 172.976 205.004 172.816C204.695 172.656 204.199 172.48 203.516 172.288C202.855 172.107 202.316 171.931 201.9 171.76C201.484 171.589 201.121 171.328 200.812 170.976C200.513 170.624 200.364 170.16 200.364 169.584C200.364 169.115 200.503 168.688 200.78 168.304C201.057 167.909 201.452 167.6 201.964 167.376C202.487 167.152 203.084 167.04 203.756 167.04C204.759 167.04 205.564 167.296 206.172 167.808C206.791 168.309 207.121 168.997 207.164 169.872H205.34C205.308 169.477 205.148 169.163 204.86 168.928C204.572 168.693 204.183 168.576 203.692 168.576C203.212 168.576 202.844 168.667 202.588 168.848C202.332 169.029 202.204 169.269 202.204 169.568C202.204 169.803 202.289 170 202.46 170.16C202.631 170.32 202.839 170.448 203.084 170.544C203.329 170.629 203.692 170.741 204.172 170.88C204.812 171.051 205.335 171.227 205.74 171.408C206.156 171.579 206.513 171.835 206.812 172.176C207.111 172.517 207.265 172.971 207.276 173.536C207.276 174.037 207.137 174.485 206.86 174.88C206.583 175.275 206.188 175.584 205.676 175.808C205.175 176.032 204.583 176.144 203.9 176.144ZM217.963 167.04C218.635 167.04 219.232 167.184 219.755 167.472C220.288 167.76 220.704 168.187 221.003 168.752C221.312 169.317 221.467 170 221.467 170.8V176H219.659V171.072C219.659 170.283 219.462 169.68 219.067 169.264C218.672 168.837 218.134 168.624 217.451 168.624C216.768 168.624 216.224 168.837 215.819 169.264C215.424 169.68 215.227 170.283 215.227 171.072V176H213.403V164.16H215.227V168.208C215.536 167.835 215.926 167.547 216.395 167.344C216.875 167.141 217.398 167.04 217.963 167.04ZM231.874 171.376C231.874 171.707 231.852 172.005 231.81 172.272H225.074C225.127 172.976 225.388 173.541 225.858 173.968C226.327 174.395 226.903 174.608 227.586 174.608C228.567 174.608 229.26 174.197 229.666 173.376H231.634C231.367 174.187 230.882 174.853 230.178 175.376C229.484 175.888 228.62 176.144 227.586 176.144C226.743 176.144 225.986 175.957 225.314 175.584C224.652 175.2 224.13 174.667 223.746 173.984C223.372 173.291 223.186 172.491 223.186 171.584C223.186 170.677 223.367 169.883 223.73 169.2C224.103 168.507 224.62 167.973 225.282 167.6C225.954 167.227 226.722 167.04 227.586 167.04C228.418 167.04 229.159 167.221 229.81 167.584C230.46 167.947 230.967 168.459 231.33 169.12C231.692 169.771 231.874 170.523 231.874 171.376ZM229.97 170.8C229.959 170.128 229.719 169.589 229.25 169.184C228.78 168.779 228.199 168.576 227.506 168.576C226.876 168.576 226.338 168.779 225.89 169.184C225.442 169.579 225.175 170.117 225.09 170.8H229.97ZM235.493 168.464C235.759 168.016 236.111 167.669 236.549 167.424C236.997 167.168 237.525 167.04 238.133 167.04V168.928H237.669C236.954 168.928 236.41 169.109 236.037 169.472C235.674 169.835 235.493 170.464 235.493 171.36V176H233.669V167.184H235.493V168.464ZM247.889 171.376C247.889 171.707 247.868 172.005 247.825 172.272H241.089C241.143 172.976 241.404 173.541 241.873 173.968C242.343 174.395 242.919 174.608 243.601 174.608C244.583 174.608 245.276 174.197 245.681 173.376H247.649C247.383 174.187 246.897 174.853 246.193 175.376C245.5 175.888 244.636 176.144 243.601 176.144C242.759 176.144 242.001 175.957 241.329 175.584C240.668 175.2 240.145 174.667 239.761 173.984C239.388 173.291 239.201 172.491 239.201 171.584C239.201 170.677 239.383 169.883 239.745 169.2C240.119 168.507 240.636 167.973 241.297 167.6C241.969 167.227 242.737 167.04 243.601 167.04C244.433 167.04 245.175 167.221 245.825 167.584C246.476 167.947 246.983 168.459 247.345 169.12C247.708 169.771 247.889 170.523 247.889 171.376ZM245.985 170.8C245.975 170.128 245.735 169.589 245.265 169.184C244.796 168.779 244.215 168.576 243.521 168.576C242.892 168.576 242.353 168.779 241.905 169.184C241.457 169.579 241.191 170.117 241.105 170.8H245.985Z" fill="#666666"/>
<rect x="4" y="5" width="331" height="95" fill="white"/>
<circle cx="169.5" cy="88.5" r="31.5" fill="url(#paint0_linear_2118_709)" stroke="white" stroke-width="2"/>
<path d="M163.846 97.168C162.294 97.168 160.878 96.808 159.598 96.088C158.318 95.352 157.302 94.336 156.55 93.04C155.814 91.728 155.446 90.256 155.446 88.624C155.446 86.992 155.814 85.528 156.55 84.232C157.302 82.92 158.318 81.904 159.598 81.184C160.878 80.448 162.294 80.08 163.846 80.08C165.414 80.08 166.838 80.448 168.118 81.184C169.398 81.904 170.406 82.912 171.142 84.208C171.878 85.504 172.246 86.976 172.246 88.624C172.246 90.272 171.878 91.744 171.142 93.04C170.406 94.336 169.398 95.352 168.118 96.088C166.838 96.808 165.414 97.168 163.846 97.168ZM163.846 95.272C165.014 95.272 166.062 95 166.99 94.456C167.934 93.912 168.67 93.136 169.198 92.128C169.742 91.12 170.014 89.952 170.014 88.624C170.014 87.28 169.742 86.112 169.198 85.12C168.67 84.112 167.942 83.336 167.014 82.792C166.086 82.248 165.03 81.976 163.846 81.976C162.662 81.976 161.606 82.248 160.678 82.792C159.75 83.336 159.014 84.112 158.47 85.12C157.942 86.112 157.678 87.28 157.678 88.624C157.678 89.952 157.942 91.12 158.47 92.128C159.014 93.136 159.75 93.912 160.678 94.456C161.622 95 162.678 95.272 163.846 95.272ZM177.313 82.048V87.64H183.409V89.44H177.313V95.2H184.129V97H175.129V80.248H184.129V82.048H177.313Z" fill="white"/>
<defs>
<linearGradient id="paint0_linear_2118_709" x1="140.761" y1="66.54" x2="203.937" y2="68.1161" gradientUnits="userSpaceOnUse">
<stop stop-color="#692ADC"/>
<stop offset="1" stop-color="#24C9D9"/>
</linearGradient>
</defs>
</svg>
