<svg width="15" height="18" viewBox="0 0 15 18" fill="none" xmlns="http://www.w3.org/2000/svg">
<path d="M7.15185 0L0 4.07367V12.3902L5.52798 15.6113L5.50098 14.2579L1.1097 11.6865V5.508L6.58314 8.60076V17.6753L7.16071 18L7.75629 17.6752V8.60076L13.2213 5.508V11.6865L8.85699 14.2038V15.5571L14.4121 12.4511V4.07367L7.15185 0ZM7.15185 7.62633L1.81323 4.47975L7.15185 1.33983L12.619 4.47975L7.15185 7.62633ZM3.03621 10.6777L4.10532 10.0687L4.01466 9.90953L2.94555 10.5186L3.03621 10.6777ZM4.90821 9.6067L5.97732 8.99767L5.88666 8.83853L4.81755 9.44756L4.90821 9.6067ZM7.23145 6.75V5.5251H7.04831V6.75H7.23145ZM7.23145 4.61475V3.3831H7.04831V4.61475H7.23145ZM7.23145 2.56239V1.3311H7.04831V2.56239H7.23145ZM9.54381 9.45466L8.48181 8.83888L8.38994 8.99732L9.45194 9.6131L9.54381 9.45466ZM11.3957 10.5255L10.3266 9.90975L10.2352 10.0685L11.3043 10.6842L11.3957 10.5255ZM1.14644 11.7576L2.20844 11.1485L2.11732 10.9897L1.05532 11.5987L1.14644 11.7576ZM13.2788 11.5967L12.2168 10.9809L12.1249 11.1393L13.1869 11.7551L13.2788 11.5967Z" fill="#692ADC"/>
</svg>
