<svg width="20" height="20" viewBox="0 0 20 20" fill="none" xmlns="http://www.w3.org/2000/svg">
<path d="M16.8561 17.1656H3.14355C2.97779 17.1656 2.81882 17.0998 2.70161 16.9826C2.5844 16.8654 2.51855 16.7064 2.51855 16.5406V9.5625C2.51855 9.39674 2.5844 9.23777 2.70161 9.12056C2.81882 9.00335 2.97779 8.9375 3.14355 8.9375H16.8561C17.0218 8.9375 17.1808 9.00335 17.298 9.12056C17.4152 9.23777 17.4811 9.39674 17.4811 9.5625V16.5406C17.4811 16.7064 17.4152 16.8654 17.298 16.9826C17.1808 17.0998 17.0218 17.1656 16.8561 17.1656ZM3.76855 15.9156H16.2311V10.1875H3.76855V15.9156Z" fill="#692ADC"/>
<path d="M15.6061 10.1876H4.39355C4.22779 10.1876 4.06882 10.1218 3.95161 10.0046C3.8344 9.88738 3.76855 9.72841 3.76855 9.56265V6.19702C3.76855 6.03126 3.8344 5.87229 3.95161 5.75508C4.06882 5.63787 4.22779 5.57202 4.39355 5.57202H15.6061C15.7718 5.57202 15.9308 5.63787 16.048 5.75508C16.1652 5.87229 16.2311 6.03126 16.2311 6.19702V9.56265C16.2311 9.72841 16.1652 9.88738 16.048 10.0046C15.9308 10.1218 15.7718 10.1876 15.6061 10.1876ZM5.01855 8.93765H14.9811V6.82202H5.01855V8.93765Z" fill="#692ADC"/>
<path d="M14.25 6.82192H5.75C5.58424 6.82192 5.42527 6.75608 5.30806 6.63887C5.19085 6.52166 5.125 6.36268 5.125 6.19692V3.4563C5.125 3.29054 5.19085 3.13157 5.30806 3.01436C5.42527 2.89715 5.58424 2.8313 5.75 2.8313H14.25C14.4158 2.8313 14.5747 2.89715 14.6919 3.01436C14.8092 3.13157 14.875 3.29054 14.875 3.4563V6.19692C14.875 6.36268 14.8092 6.52166 14.6919 6.63887C14.5747 6.75608 14.4158 6.82192 14.25 6.82192ZM6.375 5.57192H13.625V4.0813H6.375V5.57192Z" fill="#692ADC"/>
</svg>
