<svg width="16" height="16" viewBox="0 0 16 16" fill="none" xmlns="http://www.w3.org/2000/svg">
<path d="M14.8561 15.1656H1.14355C0.977794 15.1656 0.818823 15.0998 0.701613 14.9826C0.584403 14.8654 0.518555 14.7064 0.518555 14.5406V7.5625C0.518555 7.39674 0.584403 7.23777 0.701613 7.12056C0.818823 7.00335 0.977794 6.9375 1.14355 6.9375H14.8561C15.0218 6.9375 15.1808 7.00335 15.298 7.12056C15.4152 7.23777 15.4811 7.39674 15.4811 7.5625V14.5406C15.4811 14.7064 15.4152 14.8654 15.298 14.9826C15.1808 15.0998 15.0218 15.1656 14.8561 15.1656ZM1.76855 13.9156H14.2311V8.1875H1.76855V13.9156Z" fill="#692ADC"/>
<path d="M13.6061 8.18765H2.39355C2.22779 8.18765 2.06882 8.1218 1.95161 8.00459C1.8344 7.88738 1.76855 7.72841 1.76855 7.56265V4.19702C1.76855 4.03126 1.8344 3.87229 1.95161 3.75508C2.06882 3.63787 2.22779 3.57202 2.39355 3.57202H13.6061C13.7718 3.57202 13.9308 3.63787 14.048 3.75508C14.1652 3.87229 14.2311 4.03126 14.2311 4.19702V7.56265C14.2311 7.72841 14.1652 7.88738 14.048 8.00459C13.9308 8.1218 13.7718 8.18765 13.6061 8.18765ZM3.01855 6.93765H12.9811V4.82202H3.01855V6.93765Z" fill="#692ADC"/>
<path d="M12.25 4.82192H3.75C3.58424 4.82192 3.42527 4.75608 3.30806 4.63887C3.19085 4.52166 3.125 4.36268 3.125 4.19692V1.4563C3.125 1.29054 3.19085 1.13157 3.30806 1.01436C3.42527 0.897147 3.58424 0.831299 3.75 0.831299H12.25C12.4158 0.831299 12.5747 0.897147 12.6919 1.01436C12.8092 1.13157 12.875 1.29054 12.875 1.4563V4.19692C12.875 4.36268 12.8092 4.52166 12.6919 4.63887C12.5747 4.75608 12.4158 4.82192 12.25 4.82192ZM4.375 3.57192H11.625V2.0813H4.375V3.57192Z" fill="#692ADC"/>
</svg>
