<svg width="19" height="19" viewBox="0 0 19 19" fill="none" xmlns="http://www.w3.org/2000/svg">
<path d="M7.41667 3.25V5.33333H2.20833V16.7917H13.6667V11.5833H15.75V17.8333C15.75 18.1096 15.6403 18.3746 15.4449 18.5699C15.2496 18.7653 14.9846 18.875 14.7083 18.875H1.16667C0.890399 18.875 0.625447 18.7653 0.430097 18.5699C0.234747 18.3746 0.125 18.1096 0.125 17.8333V4.29167C0.125 4.0154 0.234747 3.75045 0.430097 3.5551C0.625447 3.35975 0.890399 3.25 1.16667 3.25H7.41667ZM18.875 0.125V8.45833H16.7917V3.68021L8.67396 11.799L7.20104 10.326L15.3177 2.20833H10.5417V0.125H18.875Z" fill="#692ADC"/>
</svg>
