<svg width="25" height="25" viewBox="0 0 25 25" fill="none" xmlns="http://www.w3.org/2000/svg">
<g clip-path="url(#clip0_796_1057)">
<path d="M3.72949 22.0792H18.5826L17.8732 19.7823L19.5701 21.2385L21.1253 22.6323L23.9587 25V2.57812C23.8878 1.18437 22.6878 0 21.2003 0L3.7347 0.003125C2.24824 0.003125 1.04199 1.18958 1.04199 2.58333V19.5C1.04199 20.9698 2.24616 22.0792 3.72949 22.0792ZM14.717 5.91979L14.6826 5.93229L14.6951 5.91979H14.717ZM6.76803 7.24167C8.67741 5.85208 10.4472 5.91875 10.4472 5.91875L10.5899 6.05937C8.25345 6.61667 7.19408 7.66042 7.19408 7.66042C7.19408 7.66042 7.47741 7.52187 7.9722 7.31042C11.1191 6.07292 14.5555 6.1625 17.7368 7.72917C17.7368 7.72917 16.6753 6.75312 14.4826 6.12812L14.6764 5.9375C14.9795 5.93854 16.5837 5.99479 18.3003 7.25C18.3003 7.25 20.2212 10.5312 20.2212 14.5625C20.1576 14.4854 19.0295 16.2979 16.1264 16.3604C16.1264 16.3604 15.6347 15.8042 15.2847 15.3187C16.9826 14.8313 17.618 13.8562 17.618 13.8562C17.0607 14.2073 16.5524 14.4156 16.1399 14.624C15.5055 14.9031 14.8701 15.0406 14.2357 15.1812C11.2316 15.6687 9.54512 14.8531 7.95137 14.2062L7.40658 13.9292C7.40658 13.9292 8.04095 14.9042 9.67116 15.3917C9.24304 15.8802 8.81908 16.4354 8.81908 16.4354C5.91699 16.3667 4.85866 14.5542 4.85866 14.5542C4.85866 10.5167 6.76803 7.24167 6.76803 7.24167Z" fill="#343736"/>
<path d="M14.9043 13.3036C15.6449 13.3036 16.248 12.6786 16.248 11.9077C16.248 11.1421 15.648 10.5171 14.9043 10.5171V10.5202C14.1668 10.5202 13.5626 11.1431 13.5605 11.914C13.5605 12.6786 14.1637 13.3036 14.9043 13.3036Z" fill="#343736"/>
<path d="M10.0937 13.3036C10.8344 13.3036 11.4375 12.6786 11.4375 11.9077C11.4375 11.1421 10.8385 10.5171 10.0979 10.5171L10.0937 10.5202C9.35312 10.5202 8.75 11.1431 8.75 11.914C8.75 12.6786 9.35312 13.3036 10.0937 13.3036Z" fill="#343736"/>
</g>
<defs>
<clipPath id="clip0_796_1057">
<rect width="25" height="25" fill="white"/>
</clipPath>
</defs>
</svg>
