<svg width="52" height="53" viewBox="0 0 52 53" fill="none" xmlns="http://www.w3.org/2000/svg">
<g clip-path="url(#clip0_87_5816)">
<path d="M46.6292 13.7154C40.6705 9.25641 34.9614 9.38173 34.9614 9.38173L34.378 10.0484C41.462 12.1736 44.7541 15.2988 44.7541 15.2988C34.6187 9.71869 21.7092 9.75873 11.1672 15.2988C11.1672 15.2988 14.5841 12.0067 22.0851 9.88145L21.6686 9.38121C21.6686 9.38121 16.0011 9.25641 10.0008 13.7149C10.0008 13.7149 4 24.5075 4 37.8008C4 37.8008 7.50065 43.8017 16.7099 44.0934C16.7099 44.0934 18.2517 42.2599 19.5018 40.6765C14.2097 39.0931 12.2093 35.8009 12.2093 35.8009C15.5342 37.8815 18.896 39.1835 23.0856 40.0098C29.9018 41.4128 38.3804 39.9703 44.713 35.8009C44.713 35.8009 42.6294 39.1763 37.1704 40.7181C38.4205 42.2599 39.9207 44.0518 39.9207 44.0518C49.1299 43.7601 52.63 37.7593 52.63 37.8014C52.6295 24.5081 46.6292 13.7154 46.6292 13.7154ZM20.5433 33.9258C18.2096 33.9258 16.2928 31.8838 16.2928 29.342C16.4634 23.2543 24.6659 23.273 24.7938 29.342C24.7938 31.8838 22.9182 33.9258 20.5433 33.9258ZM35.7529 33.9258C33.4191 33.9258 31.5024 31.8838 31.5024 29.342C31.6896 23.2663 39.7896 23.2637 40.0033 29.342C40.0033 31.8838 38.1282 33.9258 35.7529 33.9258Z" fill="#6665D2"/>
</g>
<defs>
<clipPath id="clip0_87_5816">
<rect width="52.0002" height="52.0002" fill="white" transform="translate(0 0.737305)"/>
</clipPath>
</defs>
</svg>
