<svg width="84" height="72" viewBox="0 0 84 72" fill="none" xmlns="http://www.w3.org/2000/svg">
<path d="M62.5625 30.125C67.4277 30.125 71.375 26.1777 71.375 21.3125C71.375 16.4473 67.4277 12.5 62.5625 12.5C57.6973 12.5 53.75 16.4473 53.75 21.3125C53.75 26.1777 57.6973 30.125 62.5625 30.125Z" fill="url(#paint0_linear_229_1398)"/>
<path d="M77.9844 0.75H6.01562C3.15156 0.75 0.875 3.08164 0.875 5.9457V66.0543C0.875 68.9184 3.15156 71.25 6.01562 71.25H77.9844C80.8484 71.25 83.125 68.9184 83.125 66.0543V5.9457C83.125 3.08164 80.8484 0.75 77.9844 0.75ZM59.0559 37.0465C58.5051 36.4039 57.6605 35.9082 56.7059 35.9082C55.7695 35.9082 55.1086 36.3488 54.3559 36.9547L50.9227 39.8555C50.2066 40.3695 49.6375 40.7184 48.8113 40.7184C48.0219 40.7184 47.3059 40.4246 46.7918 39.9656C46.6082 39.8004 46.2777 39.4883 46.0023 39.2129L36.125 28.5277C35.3906 27.6832 34.2891 27.1508 33.059 27.1508C31.8289 27.1508 30.6906 27.7566 29.9746 28.5828L6.75 56.5992V8.77305C6.93359 7.52461 7.90664 6.625 9.15508 6.625H74.8266C76.0934 6.625 77.1215 7.56133 77.1949 8.82812L77.25 56.6359L59.0559 37.0465Z" fill="url(#paint1_linear_229_1398)"/>
<defs>
<linearGradient id="paint0_linear_229_1398" x1="55.9776" y1="14.0018" x2="70.7968" y2="22.3662" gradientUnits="userSpaceOnUse">
<stop stop-color="#692ADC"/>
<stop offset="0.78343" stop-color="#408ED8"/>
</linearGradient>
<linearGradient id="paint1_linear_229_1398" x1="11.2705" y1="6.75702" x2="74.8769" y2="48.6424" gradientUnits="userSpaceOnUse">
<stop stop-color="#692ADC"/>
<stop offset="0.78343" stop-color="#408ED8"/>
</linearGradient>
</defs>
</svg>
