<svg width="11" height="11" viewBox="0 0 11 11" fill="none" xmlns="http://www.w3.org/2000/svg">
<path d="M5.04004 1.83342H1.83171C1.58859 1.83342 1.35543 1.93 1.18352 2.10191C1.01162 2.27381 0.915039 2.50697 0.915039 2.75009V9.16675C0.915039 9.40987 1.01162 9.64303 1.18352 9.81493C1.35543 9.98684 1.58859 10.0834 1.83171 10.0834H8.24837C8.49149 10.0834 8.72465 9.98684 8.89655 9.81493C9.06846 9.64303 9.16504 9.40987 9.16504 9.16675V5.95842" stroke="#692ADC" stroke-width="0.916667" stroke-linecap="round" stroke-linejoin="round"/>
<path d="M8.47754 1.14576C8.65988 0.96342 8.90718 0.860985 9.16504 0.860985C9.4229 0.860985 9.6702 0.96342 9.85254 1.14576C10.0349 1.32809 10.1373 1.57539 10.1373 1.83326C10.1373 2.09112 10.0349 2.33842 9.85254 2.52076L5.49837 6.87492L3.66504 7.33326L4.12337 5.49992L8.47754 1.14576Z" stroke="#692ADC" stroke-width="0.916667" stroke-linecap="round" stroke-linejoin="round"/>
</svg>
