<svg width="51" height="52" viewBox="0 0 51 52" fill="none" xmlns="http://www.w3.org/2000/svg">
<g clip-path="url(#clip0_87_5798)">
<path d="M25.5001 51.7375C39.5834 51.7375 51.0002 40.3207 51.0002 26.2374C51.0002 12.1541 39.5834 0.737305 25.5001 0.737305C11.4168 0.737305 0 12.1541 0 26.2374C0 40.3207 11.4168 51.7375 25.5001 51.7375Z" fill="#3B5998"/>
<path d="M35.0625 51.7374V32.6124H41.4376L43.0313 24.6436H35.0625V21.4561C35.0625 18.2686 36.6595 16.6748 39.8438 16.6748H43.0313V8.70605C41.4376 8.70605 39.4613 8.70605 36.6563 8.70605C30.7992 8.70605 27.0938 13.2977 27.0938 19.8623V24.6436H20.7188V32.6124H27.0938V51.7374H35.0625Z" fill="white"/>
</g>
<defs>
<clipPath id="clip0_87_5798">
<rect width="51.0002" height="51.0002" fill="white" transform="translate(0 0.737305)"/>
</clipPath>
</defs>
</svg>
