<svg width="22" height="28" viewBox="0 0 22 28" fill="none" xmlns="http://www.w3.org/2000/svg">
<path d="M4.76475 7.76622C4.76475 7.76622 3.74383 12.8936 4.21722 14.3081C4.21722 14.3081 4.8446 6.55139 10.8732 0.562744C10.8732 0.562744 10.6793 5.57609 13.8105 8.11984C16.9417 10.6636 17.6489 14.6218 17.6489 14.6218C17.6489 14.6218 18.0025 11.9183 16.9417 7.58942C16.9417 7.58942 23.5976 14.502 20.5462 22.2188C20.5462 22.2188 16.8675 30.717 6.33321 26.9983C-4.2011 23.2797 2.88261 9.10083 4.76475 7.76622Z" fill="#FF8500"/>
<path d="M16.0063 14.3195C16.1032 16.4925 15.1222 17.0629 14.3295 17.177C13.8218 17.2511 13.3085 17.1199 12.8637 16.8747C8.50051 14.5077 10.742 8.72443 10.742 8.72443C7.88454 11.4564 9.37314 17.1313 9.37314 17.1313C9.37314 17.1313 10.2572 20.3481 8.44918 20.6276C7.54233 20.7701 7.12027 20.4051 6.92636 20.0116C6.74955 19.6466 6.74955 19.2188 6.90354 18.8424C8.12979 15.7967 7.08035 14.0743 7.08035 14.0743C6.49289 15.8195 5.87121 16.9716 5.42064 17.6618C4.78185 18.6428 4.37691 19.7606 4.31987 20.9298C4.11455 25.2873 7.76476 27.0269 7.76476 27.0269C13.7591 30.0839 16.4511 24.4945 16.4511 24.4945C19.5481 18.5401 16.0063 14.3195 16.0063 14.3195Z" fill="#FCD870"/>
</svg>
