<svg width="94" height="87" viewBox="0 0 94 87" fill="none" xmlns="http://www.w3.org/2000/svg">
<rect width="94" height="87" rx="8.83809" fill="#EAF5FF"/>
<path d="M20 27.6C20 24.685 22.385 22.3 25.3 22.3H65.05C65.7528 22.3 66.4269 22.5792 66.9238 23.0762C67.4208 23.5731 67.7 24.2472 67.7 24.95V27.6H25.3V30.25H70.35C71.0528 30.25 71.7269 30.5292 72.2238 31.0262C72.7208 31.5231 73 32.1972 73 32.9V59.4C73 60.8056 72.4416 62.1537 71.4477 63.1477C70.4537 64.1416 69.1056 64.7 67.7 64.7H25.3C23.8944 64.7 22.5463 64.1416 21.5523 63.1477C20.5584 62.1537 20 60.8056 20 59.4V27.6ZM63.725 51.45C64.7792 51.45 65.7903 51.0312 66.5357 50.2858C67.2812 49.5403 67.7 48.5292 67.7 47.475C67.7 46.4208 67.2812 45.4097 66.5357 44.6643C65.7903 43.9188 64.7792 43.5 63.725 43.5C62.6708 43.5 61.6597 43.9188 60.9143 44.6643C60.1688 45.4097 59.75 46.4208 59.75 47.475C59.75 48.5292 60.1688 49.5403 60.9143 50.2858C61.6597 51.0312 62.6708 51.45 63.725 51.45Z" fill="url(#paint0_linear_1_5)"/>
<defs>
<linearGradient id="paint0_linear_1_5" x1="29.9375" y1="22.3" x2="81.0853" y2="28.3446" gradientUnits="userSpaceOnUse">
<stop stop-color="#692ADC"/>
<stop offset="0.820595" stop-color="#0ED0C8"/>
</linearGradient>
</defs>
</svg>
