<svg width="21" height="21" viewBox="0 0 21 21" fill="none" xmlns="http://www.w3.org/2000/svg">
<g clip-path="url(#clip0_109_1137)">
<path d="M18.9899 3.11068C17.9222 1.95262 16.4571 1.31482 14.8643 1.31482C13.6737 1.31482 12.5833 1.69124 11.6233 2.43353C11.139 2.80822 10.7001 3.26662 10.3131 3.80167C9.92631 3.26678 9.48726 2.80822 9.00273 2.43353C8.04296 1.69124 6.95257 1.31482 5.76194 1.31482C4.16909 1.31482 2.70386 1.95262 1.63613 3.11068C0.581151 4.2552 0 5.81878 0 7.51361C0 9.25801 0.650077 10.8548 2.04575 12.5389C3.29429 14.0454 5.08873 15.5747 7.16674 17.3455C7.87631 17.9503 8.6806 18.6357 9.51574 19.3659C9.73637 19.5592 10.0195 19.6655 10.3131 19.6655C10.6066 19.6655 10.8899 19.5592 11.1102 19.3662C11.9453 18.6359 12.7501 17.9501 13.46 17.345C15.5377 15.5745 17.3321 14.0454 18.5806 12.5388C19.9763 10.8548 20.6262 9.25801 20.6262 7.51345C20.6262 5.81878 20.0451 4.2552 18.9899 3.11068Z" fill="url(#paint0_linear_109_1137)"/>
</g>
<defs>
<linearGradient id="paint0_linear_109_1137" x1="3.86742" y1="1.31482" x2="20.2056" y2="13.3765" gradientUnits="userSpaceOnUse">
<stop stop-color="#692ADC"/>
<stop offset="1" stop-color="#1AE1D9"/>
</linearGradient>
<clipPath id="clip0_109_1137">
<rect width="20.6262" height="20.6262" fill="white" transform="translate(0 0.186768)"/>
</clipPath>
</defs>
</svg>
