<svg width="29" height="36" viewBox="0 0 29 36" fill="none" xmlns="http://www.w3.org/2000/svg">
<path d="M28.7418 17.806C28.7418 25.6158 22.4107 31.9469 14.6009 31.9469C6.79108 31.9469 0.459961 25.6158 0.459961 17.806C0.459961 9.99616 6.79108 3.66504 14.6009 3.66504C22.4107 3.66504 28.7418 9.99616 28.7418 17.806Z" fill="#692ADC"/>
<path d="M15.3193 9.92966C16.8819 9.92966 18.1304 10.3586 19.0649 11.2165C20.0147 12.0744 20.4896 13.2463 20.4896 14.7323C20.4896 16.2795 19.9994 17.4438 19.019 18.2251C18.0385 19.0064 16.7364 19.397 15.1125 19.397L15.0206 21.2124H12.7457L12.6308 17.6047H13.3891C14.8751 17.6047 16.0087 17.4055 16.79 17.0072C17.5866 16.6089 17.9849 15.8506 17.9849 14.7323C17.9849 13.9204 17.7475 13.2846 17.2726 12.825C16.813 12.3654 16.1696 12.1356 15.3423 12.1356C14.5151 12.1356 13.864 12.3578 13.3891 12.802C12.9142 13.2463 12.6767 13.8667 12.6767 14.6633H10.218C10.218 13.7442 10.4248 12.9246 10.8384 12.2046C11.252 11.4846 11.8418 10.9254 12.6078 10.5271C13.3891 10.1288 14.2929 9.92966 15.3193 9.92966ZM13.8487 26.2907C13.3738 26.2907 12.9755 26.1299 12.6538 25.8082C12.3321 25.4865 12.1712 25.0882 12.1712 24.6133C12.1712 24.1384 12.3321 23.7401 12.6538 23.4184C12.9755 23.0966 13.3738 22.9358 13.8487 22.9358C14.3083 22.9358 14.6989 23.0966 15.0206 23.4184C15.3423 23.7401 15.5032 24.1384 15.5032 24.6133C15.5032 25.0882 15.3423 25.4865 15.0206 25.8082C14.6989 26.1299 14.3083 26.2907 13.8487 26.2907Z" fill="#F9F9F9"/>
</svg>
