<svg width="53" height="52" viewBox="0 0 53 52" fill="none" xmlns="http://www.w3.org/2000/svg">
<path fill-rule="evenodd" clip-rule="evenodd" d="M44.172 12.6255C44.172 14.3157 42.8017 15.6855 41.1119 15.6855C39.4222 15.6855 38.0519 14.3157 38.0519 12.6255C38.0519 10.9353 39.4222 9.56551 41.1119 9.56551C42.8021 9.56551 44.172 10.9353 44.172 12.6255ZM27.5001 34.7373C22.8057 34.7373 19.0002 30.9318 19.0002 26.2374C19.0002 21.543 22.8057 17.7375 27.5001 17.7375C32.1945 17.7375 36 21.543 36 26.2374C36 30.9318 32.1945 34.7373 27.5001 34.7373ZM27.5001 13.1427C20.268 13.1427 14.4054 19.0053 14.4054 26.2374C14.4054 33.4694 20.268 39.3321 27.5001 39.3321C34.7321 39.3321 40.5948 33.4694 40.5948 26.2374C40.5948 19.0053 34.7321 13.1427 27.5001 13.1427ZM27.5001 5.3321C34.309 5.3321 35.1154 5.358 37.8041 5.48072C40.2904 5.59427 41.6407 6.00945 42.5392 6.35888C43.7293 6.82146 44.5788 7.3741 45.4713 8.2666C46.3638 9.15871 46.9164 10.0082 47.379 11.1987C47.728 12.0972 48.1436 13.4475 48.2571 15.9338C48.3799 18.6228 48.4058 19.4293 48.4058 26.2382C48.4058 33.0471 48.3799 33.8535 48.2571 36.5422C48.1436 39.0285 47.7284 40.3788 47.379 41.2772C46.9164 42.4674 46.3638 43.3169 45.4713 44.2094C44.5792 45.1019 43.7297 45.6545 42.5392 46.1171C41.6407 46.4661 40.2904 46.8817 37.8041 46.9952C35.1154 47.118 34.309 47.1439 27.5001 47.1439C20.6908 47.1439 19.8843 47.118 17.1957 46.9952C14.7094 46.8817 13.3591 46.4665 12.4606 46.1171C11.2705 45.6545 10.421 45.1019 9.5285 44.2094C8.6364 43.3173 8.08336 42.4678 7.62078 41.2772C7.27174 40.3788 6.85617 39.0285 6.74262 36.5422C6.6199 33.8531 6.594 33.0467 6.594 26.2382C6.594 19.4293 6.6199 18.6228 6.74262 15.9338C6.85617 13.4475 7.27134 12.0972 7.62078 11.1987C8.08336 10.0086 8.636 9.1591 9.5285 8.2666C10.4206 7.3741 11.2701 6.82146 12.4606 6.35888C13.3591 6.00984 14.7094 5.59427 17.1957 5.48072C19.8847 5.358 20.6912 5.3321 27.5001 5.3321ZM27.5001 0.737305C20.5748 0.737305 19.7062 0.766789 16.9865 0.890704C14.2723 1.01462 12.4184 1.44573 10.7967 2.07606C9.1197 2.72751 7.69767 3.59969 6.28003 5.01733C4.86238 6.43498 3.9902 7.85701 3.33875 9.53403C2.70842 11.1561 2.27731 13.0096 2.1534 15.7238C2.02948 18.4435 2 19.3121 2 26.2374C2 33.1626 2.02948 34.0312 2.1534 36.751C2.27731 39.4651 2.70842 41.3187 3.33875 42.9407C3.9902 44.6178 4.86238 46.0398 6.28003 47.4574C7.69767 48.8751 9.1197 49.7469 10.7967 50.3987C12.4188 51.029 14.2723 51.4601 16.9865 51.5841C19.7062 51.708 20.5748 51.7375 27.5001 51.7375C34.4253 51.7375 35.2939 51.708 38.0137 51.5841C40.7278 51.4601 42.5814 51.029 44.2034 50.3987C45.8805 49.7469 47.3025 48.8751 48.7201 47.4574C50.1378 46.0398 51.0096 44.6178 51.6614 42.9407C52.2917 41.3187 52.7228 39.4651 52.8468 36.751C52.9707 34.0312 53.0002 33.1626 53.0002 26.2374C53.0002 19.3121 52.9707 18.4435 52.8468 15.7238C52.7228 13.0096 52.2917 11.1561 51.6614 9.53403C51.0096 7.85701 50.1378 6.43498 48.7201 5.01733C47.3025 3.59969 45.8805 2.7279 44.2034 2.07606C42.5814 1.44573 40.7278 1.01462 38.0137 0.890704C35.2939 0.766789 34.4253 0.737305 27.5001 0.737305Z" fill="url(#paint0_radial_87_5806)"/>
<defs>
<radialGradient id="paint0_radial_87_5806" cx="0" cy="0" r="1" gradientUnits="userSpaceOnUse" gradientTransform="translate(9.6146 51.9145) scale(65.1654)">
<stop stop-color="#FFB140"/>
<stop offset="0.2559" stop-color="#FF5445"/>
<stop offset="0.599" stop-color="#FC2B82"/>
<stop offset="1" stop-color="#8E40B7"/>
</radialGradient>
</defs>
</svg>
