<svg width="25" height="25" viewBox="0 0 25 25" fill="none" xmlns="http://www.w3.org/2000/svg">
<g clip-path="url(#clip0_2142_743)">
<path d="M24.9746 7.35007C24.916 6.02172 24.7012 5.1085 24.3935 4.31717C24.076 3.4772 23.5877 2.72518 22.9478 2.10002C22.3226 1.46513 21.5657 0.971793 20.7354 0.659308C19.9395 0.351593 19.0311 0.136784 17.7027 0.0782166C16.3645 0.0146894 15.9396 0 12.5454 0C9.15118 0 8.72633 0.0146894 7.39303 0.0732565C6.06468 0.131824 5.15146 0.346824 4.36033 0.654348C3.52017 0.971793 2.76815 1.46017 2.14299 2.10002C1.5081 2.72518 1.01495 3.48216 0.702276 4.3124C0.394561 5.1085 0.179752 6.01676 0.121185 7.34511C0.0576582 8.68338 0.0429688 9.10822 0.0429688 12.5024C0.0429688 15.8967 0.0576582 16.3215 0.116225 17.6548C0.174792 18.9832 0.389792 19.8964 0.697507 20.6877C1.01495 21.5277 1.5081 22.2797 2.14299 22.9049C2.76815 23.5398 3.52513 24.0331 4.35537 24.3456C5.15146 24.6533 6.05972 24.8681 7.38826 24.9267C8.72137 24.9854 9.14641 24.9999 12.5406 24.9999C15.9348 24.9999 16.3597 24.9854 17.693 24.9267C19.0213 24.8681 19.9346 24.6533 20.7257 24.3456C22.4058 23.696 23.7342 22.3677 24.3837 20.6877C24.6913 19.8916 24.9063 18.9832 24.9648 17.6548C25.0234 16.3215 25.0381 15.8967 25.0381 12.5024C25.0381 9.10822 25.0331 8.68338 24.9746 7.35007ZM22.7233 17.5571C22.6695 18.7781 22.4644 19.4374 22.2935 19.8769C21.8734 20.966 21.009 21.8304 19.9199 22.2505C19.4803 22.4214 18.8163 22.6265 17.6001 22.6801C16.2815 22.7389 15.886 22.7534 12.5504 22.7534C9.21471 22.7534 8.81428 22.7389 7.50043 22.6801C6.27949 22.6265 5.62019 22.4214 5.18065 22.2505C4.63866 22.0502 4.14533 21.7328 3.7449 21.3176C3.32978 20.9123 3.01233 20.4239 2.81202 19.8819C2.64109 19.4424 2.43601 18.7781 2.3824 17.5621C2.32365 16.2435 2.30915 15.8478 2.30915 12.5122C2.30915 9.17652 2.32365 8.77609 2.3824 7.46243C2.43601 6.24149 2.64109 5.58218 2.81202 5.14264C3.01233 4.60047 3.32978 4.10732 3.74986 3.7067C4.15506 3.29158 4.64343 2.97414 5.18561 2.77402C5.62515 2.60309 6.28941 2.39801 7.50539 2.34421C8.82401 2.28564 9.21967 2.27095 12.5551 2.27095C15.8957 2.27095 16.2912 2.28564 17.605 2.34421C18.826 2.39801 19.4853 2.60309 19.9248 2.77402C20.4668 2.97414 20.9602 3.29158 21.3606 3.7067C21.7757 4.11209 22.0931 4.60047 22.2935 5.14264C22.4644 5.58218 22.6695 6.24626 22.7233 7.46243C22.7818 8.78105 22.7965 9.17652 22.7965 12.5122C22.7965 15.8478 22.7818 16.2385 22.7233 17.5571Z" fill="#692ADC"/>
<path d="M12.5472 6.08032C9.00165 6.08032 6.125 8.95679 6.125 12.5025C6.125 16.0482 9.00165 18.9246 12.5472 18.9246C16.0928 18.9246 18.9693 16.0482 18.9693 12.5025C18.9693 8.95679 16.0928 6.08032 12.5472 6.08032ZM12.5472 16.6684C10.247 16.6684 8.38126 14.8028 8.38126 12.5025C8.38126 10.2021 10.247 8.33659 12.5472 8.33659C14.8475 8.33659 16.713 10.2021 16.713 12.5025C16.713 14.8028 14.8475 16.6684 12.5472 16.6684Z" fill="#692ADC"/>
<path d="M20.7214 5.82643C20.7214 6.65438 20.0501 7.32571 19.2219 7.32571C18.394 7.32571 17.7227 6.65438 17.7227 5.82643C17.7227 4.99829 18.394 4.32715 19.2219 4.32715C20.0501 4.32715 20.7214 4.99829 20.7214 5.82643Z" fill="#692ADC"/>
</g>
<defs>
<clipPath id="clip0_2142_743">
<rect width="25" height="25" fill="white"/>
</clipPath>
</defs>
</svg>
