<svg width="38" height="38" viewBox="0 0 38 38" fill="none" xmlns="http://www.w3.org/2000/svg">
<path d="M11.7738 0.731445C9.38567 0.731445 7.3506 2.28764 6.57984 4.42492H2.5401C1.52018 4.42492 0.693359 5.25175 0.693359 6.27166C0.693359 7.29158 1.52018 8.1184 2.5401 8.1184H6.57624C7.34606 10.2574 9.38443 11.8119 11.7738 11.8119C14.1619 11.8119 16.197 10.2557 16.9678 8.1184H35.7814C36.8014 8.1184 37.6282 7.29158 37.6282 6.27166C37.6282 5.25175 36.8014 4.42492 35.7814 4.42492H16.9678C16.197 2.28764 14.1619 0.731445 11.7738 0.731445ZM11.7738 4.42492C12.8156 4.42492 13.6205 5.22986 13.6205 6.27166C13.6205 7.31347 12.8156 8.1184 11.7738 8.1184C10.732 8.1184 9.92706 7.31347 9.92706 6.27166C9.92706 5.22986 10.732 4.42492 11.7738 4.42492Z" fill="url(#paint0_linear_1944_1294)"/>
<path d="M24.701 13.6582C22.3128 13.6582 20.2778 15.2144 19.507 17.3517H2.5401C1.52018 17.3517 0.693359 18.1785 0.693359 19.1984C0.693359 20.2184 1.52018 21.0452 2.5401 21.0452H19.5034C20.2732 23.1842 22.3116 24.7386 24.701 24.7386C27.0891 24.7386 29.1242 23.1824 29.8949 21.0452H35.7814C36.8014 21.0452 37.6282 20.2184 37.6282 19.1984C37.6282 18.1785 36.8014 17.3517 35.7814 17.3517H29.8949C29.1242 15.2144 27.0891 13.6582 24.701 13.6582ZM24.701 17.3517C25.7428 17.3517 26.5477 18.1566 26.5477 19.1984C26.5477 20.2402 25.7428 21.0452 24.701 21.0452C23.6592 21.0452 22.8542 20.2402 22.8542 19.1984C22.8542 18.1566 23.6592 17.3517 24.701 17.3517Z" fill="url(#paint1_linear_1944_1294)"/>
<path d="M11.7738 26.5859C9.38567 26.5859 7.3506 28.1421 6.57984 30.2794H2.5401C1.52018 30.2794 0.693359 31.1062 0.693359 32.1262C0.693359 33.1461 1.52018 33.9729 2.5401 33.9729H6.57984C7.3506 36.1102 9.38567 37.6664 11.7738 37.6664C14.1632 37.6664 16.2015 36.1119 16.9714 33.9729H35.7814C36.8014 33.9729 37.6282 33.1461 37.6282 32.1262C37.6282 31.1062 36.8014 30.2794 35.7814 30.2794H16.9678C16.197 28.1421 14.1619 26.5859 11.7738 26.5859ZM11.7738 30.2794C12.8156 30.2794 13.6205 31.0844 13.6205 32.1262C13.6205 33.168 12.8156 33.9729 11.7738 33.9729C10.732 33.9729 9.92706 33.168 9.92706 32.1262C9.92706 31.0844 10.732 30.2794 11.7738 30.2794Z" fill="url(#paint2_linear_1944_1294)"/>
<defs>
<linearGradient id="paint0_linear_1944_1294" x1="7.61863" y1="0.731444" x2="26.8771" y2="19.2441" gradientUnits="userSpaceOnUse">
<stop stop-color="#692ADC"/>
<stop offset="0.820595" stop-color="#0ED0C8"/>
</linearGradient>
<linearGradient id="paint1_linear_1944_1294" x1="7.61863" y1="13.6582" x2="26.8771" y2="32.1708" gradientUnits="userSpaceOnUse">
<stop stop-color="#692ADC"/>
<stop offset="0.820595" stop-color="#0ED0C8"/>
</linearGradient>
<linearGradient id="paint2_linear_1944_1294" x1="7.61863" y1="26.5859" x2="26.8771" y2="45.0986" gradientUnits="userSpaceOnUse">
<stop stop-color="#692ADC"/>
<stop offset="0.820595" stop-color="#0ED0C8"/>
</linearGradient>
</defs>
</svg>
