<svg width="8" height="30" viewBox="0 0 8 30" fill="none" xmlns="http://www.w3.org/2000/svg">
<path d="M3.67302 22.0381C4.64717 22.0381 5.58141 22.4251 6.27024 23.1139C6.95907 23.8028 7.34604 24.737 7.34604 25.7112C7.34604 26.6853 6.95907 27.6195 6.27024 28.3084C5.58141 28.9972 4.64717 29.3842 3.67302 29.3842C2.69888 29.3842 1.76463 28.9972 1.0758 28.3084C0.386979 27.6195 0 26.6853 0 25.7112C0 24.737 0.386979 23.8028 1.0758 23.1139C1.76463 22.4251 2.69888 22.0381 3.67302 22.0381ZM3.67302 11.0191C4.64717 11.0191 5.58141 11.406 6.27024 12.0949C6.95907 12.7837 7.34604 13.7179 7.34604 14.6921C7.34604 15.6662 6.95907 16.6005 6.27024 17.2893C5.58141 17.9781 4.64717 18.3651 3.67302 18.3651C2.69888 18.3651 1.76463 17.9781 1.0758 17.2893C0.386979 16.6005 0 15.6662 0 14.6921C0 13.7179 0.386979 12.7837 1.0758 12.0949C1.76463 11.406 2.69888 11.0191 3.67302 11.0191ZM3.67302 0C4.64717 0 5.58141 0.386978 6.27024 1.0758C6.95907 1.76463 7.34604 2.69888 7.34604 3.67302C7.34604 4.64717 6.95907 5.58142 6.27024 6.27024C5.58141 6.95907 4.64717 7.34604 3.67302 7.34604C2.69888 7.34604 1.76463 6.95907 1.0758 6.27024C0.386979 5.58142 0 4.64717 0 3.67302C0 2.69888 0.386979 1.76463 1.0758 1.0758C1.76463 0.386978 2.69888 0 3.67302 0Z" fill="url(#paint0_linear_1577_845)"/>
<defs>
<linearGradient id="paint0_linear_1577_845" x1="1.37738" y1="-3.76285e-07" x2="10.1316" y2="1.43745" gradientUnits="userSpaceOnUse">
<stop stop-color="#692ADC"/>
<stop offset="1" stop-color="#1AE1D9"/>
</linearGradient>
</defs>
</svg>
