<svg width="244" height="260" viewBox="0 0 244 260" fill="none" xmlns="http://www.w3.org/2000/svg">
<path d="M42.4746 240.605H45.6289L51.3613 250.654V240.605H54.1641V255H51.1562L45.2773 244.775V255H42.4746V240.605ZM61.5273 253.037C62.3411 253.037 62.9661 252.747 63.4023 252.168C63.8385 251.589 64.0566 250.765 64.0566 249.697C64.0566 248.63 63.8385 247.809 63.4023 247.236C62.9661 246.657 62.3411 246.367 61.5273 246.367C60.7135 246.367 60.0853 246.657 59.6426 247.236C59.2064 247.809 58.9883 248.63 58.9883 249.697C58.9883 250.765 59.2064 251.589 59.6426 252.168C60.0853 252.747 60.7135 253.037 61.5273 253.037ZM66.9766 249.697C66.9766 251.26 66.5273 252.598 65.6289 253.711C64.7305 254.818 63.3665 255.371 61.5371 255.371C59.7077 255.371 58.3438 254.818 57.4453 253.711C56.5469 252.598 56.0977 251.26 56.0977 249.697C56.0977 248.161 56.5469 246.829 57.4453 245.703C58.3438 244.577 59.7077 244.014 61.5371 244.014C63.3665 244.014 64.7305 244.577 65.6289 245.703C66.5273 246.829 66.9766 248.161 66.9766 249.697ZM78.4707 244.102C79.1152 244.102 79.6882 244.245 80.1895 244.531C80.6908 244.811 81.0977 245.202 81.4102 245.703V240.625H84.2324V255H81.5273V253.525C81.1302 254.157 80.6777 254.616 80.1699 254.902C79.6621 255.189 79.0306 255.332 78.2754 255.332C77.0319 255.332 75.9837 254.831 75.1309 253.828C74.2845 252.819 73.8613 251.527 73.8613 249.951C73.8613 248.135 74.278 246.706 75.1113 245.664C75.9512 244.622 77.071 244.102 78.4707 244.102ZM79.0762 252.988C79.8639 252.988 80.4629 252.695 80.873 252.109C81.2832 251.523 81.4883 250.765 81.4883 249.834C81.4883 248.532 81.1595 247.601 80.502 247.041C80.0983 246.702 79.6296 246.533 79.0957 246.533C78.2819 246.533 77.6829 246.842 77.2988 247.461C76.9212 248.073 76.7324 248.835 76.7324 249.746C76.7324 250.729 76.9245 251.517 77.3086 252.109C77.6992 252.695 78.2884 252.988 79.0762 252.988ZM92.6406 249.824C92.4648 249.935 92.2858 250.026 92.1035 250.098C91.9277 250.163 91.6836 250.225 91.3711 250.283L90.7461 250.4C90.1602 250.505 89.7402 250.632 89.4863 250.781C89.0566 251.035 88.8418 251.429 88.8418 251.963C88.8418 252.438 88.972 252.783 89.2324 252.998C89.4993 253.206 89.8216 253.311 90.1992 253.311C90.7982 253.311 91.3483 253.135 91.8496 252.783C92.3574 252.432 92.6211 251.79 92.6406 250.859V249.824ZM90.9512 248.525C91.4655 248.46 91.8333 248.379 92.0547 248.281C92.4518 248.112 92.6504 247.848 92.6504 247.49C92.6504 247.054 92.4974 246.755 92.1914 246.592C91.8919 246.423 91.4492 246.338 90.8633 246.338C90.2057 246.338 89.7402 246.501 89.4668 246.826C89.2715 247.067 89.1413 247.393 89.0762 247.803H86.3906C86.4492 246.872 86.7096 246.107 87.1719 245.508C87.9076 244.57 89.1706 244.102 90.9609 244.102C92.1263 244.102 93.1615 244.333 94.0664 244.795C94.9714 245.257 95.4238 246.13 95.4238 247.412V252.295C95.4238 252.633 95.4303 253.044 95.4434 253.525C95.4629 253.89 95.5182 254.137 95.6094 254.268C95.7005 254.398 95.8372 254.505 96.0195 254.59V255H92.9922C92.9076 254.785 92.849 254.583 92.8164 254.395C92.7839 254.206 92.7578 253.991 92.7383 253.75C92.3542 254.167 91.9115 254.521 91.4102 254.814C90.8112 255.16 90.1341 255.332 89.3789 255.332C88.4154 255.332 87.6178 255.059 86.9863 254.512C86.3613 253.958 86.0488 253.177 86.0488 252.168C86.0488 250.859 86.5534 249.912 87.5625 249.326C88.1159 249.007 88.9297 248.779 90.0039 248.643L90.9512 248.525ZM96.8105 246.436V244.453H98.2949V241.484H101.049V244.453H102.777V246.436H101.049V252.061C101.049 252.497 101.104 252.77 101.215 252.881C101.326 252.985 101.664 253.037 102.23 253.037C102.315 253.037 102.403 253.037 102.494 253.037C102.592 253.031 102.686 253.024 102.777 253.018V255.098L101.459 255.146C100.144 255.192 99.2454 254.964 98.7637 254.463C98.4512 254.144 98.2949 253.652 98.2949 252.988V246.436H96.8105ZM110.434 249.824C110.258 249.935 110.079 250.026 109.896 250.098C109.721 250.163 109.477 250.225 109.164 250.283L108.539 250.4C107.953 250.505 107.533 250.632 107.279 250.781C106.85 251.035 106.635 251.429 106.635 251.963C106.635 252.438 106.765 252.783 107.025 252.998C107.292 253.206 107.615 253.311 107.992 253.311C108.591 253.311 109.141 253.135 109.643 252.783C110.15 252.432 110.414 251.79 110.434 250.859V249.824ZM108.744 248.525C109.258 248.46 109.626 248.379 109.848 248.281C110.245 248.112 110.443 247.848 110.443 247.49C110.443 247.054 110.29 246.755 109.984 246.592C109.685 246.423 109.242 246.338 108.656 246.338C107.999 246.338 107.533 246.501 107.26 246.826C107.064 247.067 106.934 247.393 106.869 247.803H104.184C104.242 246.872 104.503 246.107 104.965 245.508C105.701 244.57 106.964 244.102 108.754 244.102C109.919 244.102 110.954 244.333 111.859 244.795C112.764 245.257 113.217 246.13 113.217 247.412V252.295C113.217 252.633 113.223 253.044 113.236 253.525C113.256 253.89 113.311 254.137 113.402 254.268C113.493 254.398 113.63 254.505 113.812 254.59V255H110.785C110.701 254.785 110.642 254.583 110.609 254.395C110.577 254.206 110.551 253.991 110.531 253.75C110.147 254.167 109.704 254.521 109.203 254.814C108.604 255.16 107.927 255.332 107.172 255.332C106.208 255.332 105.411 255.059 104.779 254.512C104.154 253.958 103.842 253.177 103.842 252.168C103.842 250.859 104.346 249.912 105.355 249.326C105.909 249.007 106.723 248.779 107.797 248.643L108.744 248.525ZM125.189 240.459C125.365 240.459 125.525 240.465 125.668 240.479C125.811 240.485 126.007 240.498 126.254 240.518V242.783C126.098 242.764 125.834 242.751 125.463 242.744C125.098 242.731 124.844 242.812 124.701 242.988C124.564 243.158 124.496 243.346 124.496 243.555C124.496 243.763 124.496 244.062 124.496 244.453H126.322V246.416H124.496V255H121.723V246.416H120.17V244.453H121.693V243.77C121.693 242.63 121.885 241.846 122.27 241.416C122.673 240.778 123.646 240.459 125.189 240.459ZM132.699 253.037C133.513 253.037 134.138 252.747 134.574 252.168C135.01 251.589 135.229 250.765 135.229 249.697C135.229 248.63 135.01 247.809 134.574 247.236C134.138 246.657 133.513 246.367 132.699 246.367C131.885 246.367 131.257 246.657 130.814 247.236C130.378 247.809 130.16 248.63 130.16 249.697C130.16 250.765 130.378 251.589 130.814 252.168C131.257 252.747 131.885 253.037 132.699 253.037ZM138.148 249.697C138.148 251.26 137.699 252.598 136.801 253.711C135.902 254.818 134.538 255.371 132.709 255.371C130.88 255.371 129.516 254.818 128.617 253.711C127.719 252.598 127.27 251.26 127.27 249.697C127.27 248.161 127.719 246.829 128.617 245.703C129.516 244.577 130.88 244.014 132.709 244.014C134.538 244.014 135.902 244.577 136.801 245.703C137.699 246.829 138.148 248.161 138.148 249.697ZM142.924 244.355V250.771C142.924 251.377 142.995 251.833 143.139 252.139C143.393 252.679 143.891 252.949 144.633 252.949C145.583 252.949 146.234 252.565 146.586 251.797C146.768 251.38 146.859 250.83 146.859 250.146V244.355H149.682V255H146.977V253.496C146.951 253.529 146.885 253.626 146.781 253.789C146.677 253.952 146.553 254.095 146.41 254.219C145.974 254.609 145.551 254.876 145.141 255.02C144.737 255.163 144.262 255.234 143.715 255.234C142.139 255.234 141.078 254.668 140.531 253.535C140.225 252.91 140.072 251.989 140.072 250.771V244.355H142.924ZM158.275 244.102C159.376 244.102 160.274 244.391 160.971 244.971C161.674 245.544 162.025 246.497 162.025 247.832V255H159.174V248.525C159.174 247.965 159.099 247.536 158.949 247.236C158.676 246.689 158.155 246.416 157.387 246.416C156.443 246.416 155.795 246.816 155.443 247.617C155.261 248.04 155.17 248.581 155.17 249.238V255H152.396V244.375H155.082V245.928C155.44 245.381 155.779 244.987 156.098 244.746C156.671 244.316 157.396 244.102 158.275 244.102ZM168.529 244.102C169.174 244.102 169.747 244.245 170.248 244.531C170.749 244.811 171.156 245.202 171.469 245.703V240.625H174.291V255H171.586V253.525C171.189 254.157 170.736 254.616 170.229 254.902C169.721 255.189 169.089 255.332 168.334 255.332C167.09 255.332 166.042 254.831 165.189 253.828C164.343 252.819 163.92 251.527 163.92 249.951C163.92 248.135 164.337 246.706 165.17 245.664C166.01 244.622 167.13 244.102 168.529 244.102ZM169.135 252.988C169.923 252.988 170.521 252.695 170.932 252.109C171.342 251.523 171.547 250.765 171.547 249.834C171.547 248.532 171.218 247.601 170.561 247.041C170.157 246.702 169.688 246.533 169.154 246.533C168.34 246.533 167.742 246.842 167.357 247.461C166.98 248.073 166.791 248.835 166.791 249.746C166.791 250.729 166.983 251.517 167.367 252.109C167.758 252.695 168.347 252.988 169.135 252.988ZM177.729 240.654H180.785V244.307L179.994 251.025H178.539L177.729 244.307V240.654ZM177.797 252.178H180.707V255H177.797V252.178Z" fill="#525554"/>
<path d="M112.018 188C163.932 188 206.018 145.915 206.018 94C206.018 42.0852 163.932 0 112.018 0C60.1028 0 18.0176 42.0852 18.0176 94C18.0176 145.915 60.1028 188 112.018 188Z" fill="url(#paint0_linear_30_1796)"/>
<g filter="url(#filter0_d_30_1796)">
<rect x="64.2344" y="27.0691" width="97.554" height="121.439" rx="16" fill="url(#paint1_linear_30_1796)"/>
</g>
<rect x="72.8516" y="42.7358" width="50" height="4.55667" rx="2.27833" fill="black"/>
<rect x="72.8516" y="65.2925" width="78.3333" height="4.55667" rx="2.27833" fill="#D5D5D5"/>
<rect x="72.8516" y="87.8491" width="78.3333" height="4.55667" rx="2.27833" fill="#D5D5D5"/>
<rect x="72.8516" y="110.406" width="78.3333" height="4.55667" rx="2.27833" fill="#D5D5D5"/>
<rect x="72.8516" y="132.962" width="78.3333" height="4.55667" rx="2.27833" fill="#D5D5D5"/>
<g filter="url(#filter1_d_30_1796)">
<path d="M220.235 13.6489H173.172C170.979 13.6489 169.201 15.5199 169.201 17.8279V41.1079C169.201 43.4159 170.979 45.2869 173.172 45.2869H220.235C222.428 45.2869 224.206 43.4159 224.206 41.1079V17.8279C224.206 15.5199 222.428 13.6489 220.235 13.6489Z" fill="white"/>
</g>
<path d="M180.95 34.4667C183.546 34.4667 185.65 32.3624 185.65 29.7666C185.65 27.1709 183.546 25.0667 180.95 25.0667C178.354 25.0667 176.25 27.1709 176.25 29.7666C176.25 32.3624 178.354 34.4667 180.95 34.4667Z" fill="#CCC6D9"/>
<rect x="191.916" y="25.0667" width="25.0667" height="9.4" rx="4.7" fill="#D5D5D5"/>
<path fill-rule="evenodd" clip-rule="evenodd" d="M139.519 153.975C149.608 153.975 158.985 150.923 166.776 145.692L198.657 176.125L210.219 162.71L179.455 133.343C185.137 125.348 188.477 115.572 188.477 105.016C188.477 77.9773 166.558 56.0579 139.519 56.0579C112.48 56.0579 90.5605 77.9773 90.5605 105.016C90.5605 132.055 112.48 153.975 139.519 153.975ZM181.278 105.016C181.278 127.908 162.721 146.465 139.829 146.465C116.938 146.465 98.3807 127.908 98.3807 105.016C98.3807 82.1248 116.938 63.5676 139.829 63.5676C162.721 63.5676 181.278 82.1248 181.278 105.016Z" fill="#CCC6D9"/>
<g filter="url(#filter2_b_30_1796)">
<path d="M139.826 147.267C163.404 147.267 182.518 128.328 182.518 104.967C182.518 81.6051 163.404 62.6667 139.826 62.6667C116.248 62.6667 97.1348 81.6051 97.1348 104.967C97.1348 128.328 116.248 147.267 139.826 147.267Z" fill="white" fill-opacity="0.3"/>
</g>
<path d="M147.208 104.967L157.539 94.6753C158.507 93.6572 159.038 92.3041 159.018 90.9035C158.998 89.503 158.429 88.1653 157.433 87.1749C156.436 86.1844 155.09 85.6192 153.681 85.5994C152.272 85.5796 150.911 86.1066 149.886 87.0686L139.532 97.36L129.2 87.0686C128.703 86.5457 128.106 86.1272 127.443 85.8378C126.78 85.5484 126.066 85.394 125.342 85.3838C124.618 85.3736 123.9 85.5078 123.229 85.7784C122.558 86.049 121.949 86.4506 121.437 86.9593C120.925 87.4681 120.521 88.0736 120.249 88.7403C119.977 89.4069 119.842 90.121 119.852 90.8404C119.862 91.5598 120.018 92.2698 120.309 92.9285C120.6 93.5872 121.021 94.1812 121.547 94.6753L131.896 104.967L121.547 115.258C121.021 115.752 120.6 116.346 120.309 117.005C120.018 117.663 119.862 118.373 119.852 119.093C119.842 119.812 119.977 120.526 120.249 121.193C120.521 121.86 120.925 122.465 121.437 122.974C121.949 123.483 122.558 123.884 123.229 124.155C123.9 124.425 124.618 124.56 125.342 124.549C126.066 124.539 126.78 124.385 127.443 124.096C128.106 123.806 128.703 123.388 129.2 122.865L139.555 112.573L149.909 122.865C150.943 123.77 152.286 124.249 153.663 124.205C155.04 124.16 156.349 123.596 157.322 122.626C158.295 121.656 158.859 120.354 158.899 118.985C158.94 117.616 158.453 116.283 157.539 115.258L147.208 104.967Z" fill="#692ADC"/>
<path d="M198.656 176.127L210.218 162.712L211.96 164.374C213.65 165.987 214.661 168.241 214.772 170.639C214.883 173.037 214.085 175.383 212.552 177.161V177.161C211.019 178.939 208.878 180.004 206.6 180.121C204.321 180.238 202.092 179.397 200.402 177.784L198.661 176.122L198.656 176.127Z" fill="#E1DCEB"/>
<path fill-rule="evenodd" clip-rule="evenodd" d="M38.6296 48.7012C38.6149 47.5841 38.4748 46.4574 38.1945 45.323C37.2116 41.3421 32.8267 38.7863 28.1596 38.1854C23.4943 37.5845 18.6428 38.9519 16.773 42.4148C15.7035 44.3947 15.556 46.1011 15.993 47.5398C16.4282 48.9708 17.4607 50.1572 18.8621 51.0816C22.7695 53.6566 29.6126 54.1824 32.7345 53.1058C34.1783 52.607 35.5889 52.0061 36.9627 51.3186C36.1771 55.8195 33.2507 60.0836 29.3452 63.9259C20.8573 72.2769 7.68582 78.6152 0.51274 80.9456C0.127349 81.0708 -0.0865711 81.4983 0.0332876 81.9009C0.153146 82.3034 0.562503 82.5287 0.947894 82.4036C8.26296 80.0269 21.6909 73.5538 30.3465 65.0372C34.8181 60.6383 38.0045 55.6866 38.5485 50.4808C48.6572 44.8396 56.9588 34.6051 64.0563 25.9922C64.32 25.6744 64.285 25.191 63.9789 24.9156C63.6728 24.6421 63.2117 24.6767 62.948 24.9964C56.14 33.2569 48.2386 43.0831 38.6296 48.7012ZM37.16 49.5197C37.2154 48.264 37.0973 46.989 36.7783 45.7024C35.9282 42.2569 32.0208 40.2192 27.9807 39.6992C25.5042 39.3815 22.9577 39.6434 20.9607 40.5756C19.7049 41.1611 18.6704 42.0104 18.0471 43.166C17.2284 44.6817 17.0514 45.9779 17.387 47.0776C17.7226 48.185 18.5561 49.0748 19.6422 49.7893C23.203 52.1371 29.4337 52.6359 32.2753 51.6556C33.9515 51.0778 35.5779 50.3575 37.16 49.5197Z" fill="#692ADC"/>
<circle cx="217.766" cy="121.417" r="4.7" fill="#E3E3E3"/>
<path fill-rule="evenodd" clip-rule="evenodd" d="M40.2518 153.842C41.0905 153.527 41.9732 153.109 42.6538 152.504C43.4622 151.785 43.791 150.86 44.0118 149.885C44.2952 148.633 44.4085 147.299 44.7522 146.045C44.8795 145.579 45.1244 145.403 45.2295 145.325C45.4951 145.128 45.7635 145.075 46.0161 145.095C46.3155 145.118 46.7267 145.237 46.9971 145.765C47.0357 145.841 47.0858 145.956 47.1196 146.114C47.1441 146.229 47.1601 146.591 47.1861 146.74C47.2512 147.107 47.3056 147.475 47.3567 147.844C47.5269 149.073 47.6248 150.117 48.1622 151.247C48.8916 152.78 49.6224 153.718 50.6135 154.133C51.5718 154.535 52.7176 154.459 54.1816 154.144C54.3209 154.109 54.4588 154.078 54.5952 154.054C55.2407 153.935 55.8577 154.381 55.9845 155.058C56.1113 155.734 55.7011 156.393 55.0614 156.541C54.9278 156.572 54.7962 156.602 54.6661 156.629C52.6877 157.144 50.3975 158.984 49.0666 160.594C48.6563 161.091 48.0557 162.479 47.443 163.365C46.9909 164.019 46.4828 164.449 46.0562 164.602C45.7703 164.704 45.5293 164.688 45.3302 164.637C45.041 164.562 44.8009 164.397 44.6168 164.134C44.5165 163.991 44.4234 163.798 44.3791 163.553C44.3579 163.435 44.3555 163.134 44.356 162.998C44.2311 162.546 44.0783 162.105 43.967 161.649C43.7013 160.561 43.1802 159.872 42.5613 158.962C41.9823 158.11 41.3605 157.575 40.449 157.148C40.3304 157.117 39.3735 156.871 39.0356 156.729C38.542 156.522 38.3067 156.174 38.2214 155.987C38.0763 155.669 38.0614 155.392 38.0903 155.161C38.1332 154.819 38.2788 154.527 38.5371 154.291C38.6972 154.144 38.9363 154.002 39.2564 153.932C39.5037 153.878 40.1597 153.847 40.2518 153.842ZM45.8653 152.068C45.9096 152.172 45.9569 152.277 46.007 152.382C47.0752 154.628 48.2697 155.881 49.7217 156.49L49.7704 156.509C48.799 157.268 47.9198 158.117 47.2478 158.93C46.9711 159.265 46.6047 159.96 46.209 160.673C45.8494 159.443 45.2613 158.574 44.5218 157.486C43.9568 156.655 43.3649 156.03 42.6375 155.521C43.2019 155.216 43.7404 154.859 44.2094 154.442C44.9903 153.747 45.5066 152.943 45.8653 152.068Z" fill="#CCC6D9"/>
<defs>
<filter id="filter0_d_30_1796" x="34.2344" y="17.0691" width="157.555" height="181.439" filterUnits="userSpaceOnUse" color-interpolation-filters="sRGB">
<feFlood flood-opacity="0" result="BackgroundImageFix"/>
<feColorMatrix in="SourceAlpha" type="matrix" values="0 0 0 0 0 0 0 0 0 0 0 0 0 0 0 0 0 0 127 0" result="hardAlpha"/>
<feOffset dy="20"/>
<feGaussianBlur stdDeviation="15"/>
<feComposite in2="hardAlpha" operator="out"/>
<feColorMatrix type="matrix" values="0 0 0 0 0.570833 0 0 0 0 0.570833 0 0 0 0 0.570833 0 0 0 0.19 0"/>
<feBlend mode="normal" in2="BackgroundImageFix" result="effect1_dropShadow_30_1796"/>
<feBlend mode="normal" in="SourceGraphic" in2="effect1_dropShadow_30_1796" result="shape"/>
</filter>
<filter id="filter1_d_30_1796" x="162.201" y="4.64893" width="81.0059" height="57.6379" filterUnits="userSpaceOnUse" color-interpolation-filters="sRGB">
<feFlood flood-opacity="0" result="BackgroundImageFix"/>
<feColorMatrix in="SourceAlpha" type="matrix" values="0 0 0 0 0 0 0 0 0 0 0 0 0 0 0 0 0 0 127 0" result="hardAlpha"/>
<feOffset dx="6" dy="4"/>
<feGaussianBlur stdDeviation="6.5"/>
<feComposite in2="hardAlpha" operator="out"/>
<feColorMatrix type="matrix" values="0 0 0 0 0.104618 0 0 0 0 0.465612 0 0 0 0 0.545833 0 0 0 0.09 0"/>
<feBlend mode="normal" in2="BackgroundImageFix" result="effect1_dropShadow_30_1796"/>
<feBlend mode="normal" in="SourceGraphic" in2="effect1_dropShadow_30_1796" result="shape"/>
</filter>
<filter id="filter2_b_30_1796" x="89.1348" y="54.6667" width="101.383" height="100.6" filterUnits="userSpaceOnUse" color-interpolation-filters="sRGB">
<feFlood flood-opacity="0" result="BackgroundImageFix"/>
<feGaussianBlur in="BackgroundImage" stdDeviation="4"/>
<feComposite in2="SourceAlpha" operator="in" result="effect1_backgroundBlur_30_1796"/>
<feBlend mode="normal" in="SourceGraphic" in2="effect1_backgroundBlur_30_1796" result="shape"/>
</filter>
<linearGradient id="paint0_linear_30_1796" x1="111.293" y1="-30.6087" x2="113.219" y2="299.505" gradientUnits="userSpaceOnUse">
<stop stop-color="#F7F2FF"/>
<stop offset="1" stop-color="#EFEFEF"/>
</linearGradient>
<linearGradient id="paint1_linear_30_1796" x1="113.011" y1="27.0691" x2="113.011" y2="148.508" gradientUnits="userSpaceOnUse">
<stop stop-color="white"/>
<stop offset="0.71875" stop-color="#FAFAFA"/>
</linearGradient>
</defs>
</svg>
