<svg id="Layer_1" data-name="Layer 1" xmlns="http://www.w3.org/2000/svg" xmlns:xlink="http://www.w3.org/1999/xlink" viewBox="0 0 244 260"><defs><style>.cls-1,.cls-7{fill:#fff;}.cls-2{fill:url(#linear-gradient);}.cls-3{fill:url(#linear-gradient-2);}.cls-4{fill:#d5d5d5;}.cls-5,.cls-6{fill:#ccc6d9;}.cls-10,.cls-6{fill-rule:evenodd;}.cls-7{fill-opacity:0.3;}.cls-10,.cls-8{fill:#692adc;}.cls-9{fill:#e1dceb;}.cls-11{fill:#e3e3e3;}</style><linearGradient id="linear-gradient" x1="111.29" y1="292.61" x2="113.22" y2="-37.51" gradientTransform="matrix(1, 0, 0, -1, 0, 262)" gradientUnits="userSpaceOnUse"><stop offset="0" stop-color="#f7f2ff"/><stop offset="1" stop-color="#efefef"/></linearGradient><linearGradient id="linear-gradient-2" x1="113.01" y1="234.93" x2="113.01" y2="113.49" gradientTransform="matrix(1, 0, 0, -1, 0, 262)" gradientUnits="userSpaceOnUse"><stop offset="0" stop-color="#fff"/><stop offset="0.72" stop-color="#fafafa"/></linearGradient></defs><path class="cls-1" d="M42.47,240.6h3.16l5.73,10.05V240.6h2.8V255h-3l-5.88-10.23V255H42.47ZM61.53,253a2.19,2.19,0,0,0,1.87-.87,4,4,0,0,0,.66-2.47,4,4,0,0,0-.66-2.46,2.19,2.19,0,0,0-1.87-.87,2.24,2.24,0,0,0-1.89.87A4,4,0,0,0,59,249.7a4.1,4.1,0,0,0,.65,2.47A2.24,2.24,0,0,0,61.53,253ZM67,249.7a6.17,6.17,0,0,1-1.35,4,5,5,0,0,1-4.09,1.66,4.93,4.93,0,0,1-4.09-1.66,6.62,6.62,0,0,1,0-8A4.92,4.92,0,0,1,61.54,244a4.93,4.93,0,0,1,4.09,1.69A6.22,6.22,0,0,1,67,249.7Zm11.49-5.6a3.37,3.37,0,0,1,2.94,1.6v-5.08h2.82V255h-2.7v-1.48a3.82,3.82,0,0,1-1.36,1.38,3.77,3.77,0,0,1-1.89.43,4,4,0,0,1-3.15-1.5A5.81,5.81,0,0,1,73.86,250a6.72,6.72,0,0,1,1.25-4.29A4.1,4.1,0,0,1,78.47,244.1Zm.61,8.89a2,2,0,0,0,1.79-.88,3.91,3.91,0,0,0,.62-2.28,3.48,3.48,0,0,0-1-2.79,2.1,2.1,0,0,0-1.4-.51,2,2,0,0,0-1.8.93,4.27,4.27,0,0,0-.57,2.29,4.23,4.23,0,0,0,.58,2.36A2,2,0,0,0,79.08,253Zm13.56-3.17a3.08,3.08,0,0,1-.54.28,4.29,4.29,0,0,1-.73.18l-.62.12a4.12,4.12,0,0,0-1.26.38,1.47,1.47,0,0,0-.26,2.22,1.52,1.52,0,0,0,1,.31,2.82,2.82,0,0,0,1.65-.53,2.23,2.23,0,0,0,.79-1.92ZM91,248.52a4,4,0,0,0,1.1-.24.84.84,0,0,0,.6-.79.92.92,0,0,0-.46-.9,2.76,2.76,0,0,0-1.33-.25,1.71,1.71,0,0,0-1.39.49,1.91,1.91,0,0,0-.39,1H86.39a4.1,4.1,0,0,1,.78-2.29A4.55,4.55,0,0,1,91,244.1a6.78,6.78,0,0,1,3.11.69,2.68,2.68,0,0,1,1.35,2.62v4.88c0,.34,0,.75,0,1.23a1.58,1.58,0,0,0,.17.75,1,1,0,0,0,.41.32V255H93a3.25,3.25,0,0,1-.17-.6,5.5,5.5,0,0,1-.08-.65,5.7,5.7,0,0,1-1.33,1.06,4,4,0,0,1-2,.52,3.51,3.51,0,0,1-2.39-.82,2.94,2.94,0,0,1-.94-2.34,3,3,0,0,1,1.51-2.84,6.81,6.81,0,0,1,2.44-.69Zm5.86-2.08v-2h1.48v-3h2.76v3h1.73v2h-1.73v5.62a1.3,1.3,0,0,0,.16.82,1.84,1.84,0,0,0,1,.16h.26l.29,0v2.08l-1.32.05a3.58,3.58,0,0,1-2.7-.69,2,2,0,0,1-.47-1.47v-6.55Zm13.62,3.38a3,3,0,0,1-.53.28,4.45,4.45,0,0,1-.74.18l-.62.12a4.12,4.12,0,0,0-1.26.38,1.28,1.28,0,0,0-.64,1.18,1.25,1.25,0,0,0,.39,1,1.48,1.48,0,0,0,1,.31,2.82,2.82,0,0,0,1.65-.53,2.23,2.23,0,0,0,.79-1.92Zm-1.69-1.3a4.07,4.07,0,0,0,1.11-.24.83.83,0,0,0,.59-.79.92.92,0,0,0-.46-.9,2.74,2.74,0,0,0-1.32-.25,1.72,1.72,0,0,0-1.4.49,1.91,1.91,0,0,0-.39,1h-2.69a4.1,4.1,0,0,1,.78-2.29,4.55,4.55,0,0,1,3.79-1.41,6.78,6.78,0,0,1,3.11.69,2.69,2.69,0,0,1,1.36,2.62v4.88c0,.34,0,.75,0,1.23a1.6,1.6,0,0,0,.16.75,1,1,0,0,0,.41.32V255h-3a2.68,2.68,0,0,1-.18-.6c0-.19-.06-.41-.08-.65a5.5,5.5,0,0,1-1.33,1.06,3.93,3.93,0,0,1-2,.52,3.51,3.51,0,0,1-2.39-.82,2.94,2.94,0,0,1-.94-2.34,3,3,0,0,1,1.52-2.84,6.69,6.69,0,0,1,2.44-.69Zm16.45-8.06a3.62,3.62,0,0,1,.48,0l.58,0v2.26c-.15,0-.42,0-.79,0a.89.89,0,0,0-.76.25.86.86,0,0,0-.2.56v.9h1.82v2H124.5V255h-2.78v-8.58h-1.55v-2h1.52v-.68a3.61,3.61,0,0,1,.58-2.35C122.67,240.78,123.65,240.46,125.19,240.46ZM132.7,253a2.19,2.19,0,0,0,1.87-.87,4,4,0,0,0,.66-2.47,4,4,0,0,0-.66-2.46,2.19,2.19,0,0,0-1.87-.87,2.24,2.24,0,0,0-1.89.87,4,4,0,0,0-.65,2.46,4.1,4.1,0,0,0,.65,2.47A2.24,2.24,0,0,0,132.7,253Zm5.45-3.34a6.17,6.17,0,0,1-1.35,4,5.87,5.87,0,0,1-8.18,0,6.62,6.62,0,0,1,0-8,5.79,5.79,0,0,1,8.18,0A6.22,6.22,0,0,1,138.15,249.7Zm4.77-5.35v6.42a3.25,3.25,0,0,0,.22,1.37,1.48,1.48,0,0,0,1.49.81,2,2,0,0,0,2-1.15,4.24,4.24,0,0,0,.27-1.65v-5.8h2.82V255H147v-1.5a2.31,2.31,0,0,0-.2.29,1.91,1.91,0,0,1-.37.43,3.85,3.85,0,0,1-1.27.8,4.35,4.35,0,0,1-1.43.21,3.19,3.19,0,0,1-3.18-1.69,6.64,6.64,0,0,1-.46-2.77v-6.42Zm15.35-.25a4.07,4.07,0,0,1,2.7.87,3.5,3.5,0,0,1,1.05,2.86V255h-2.85v-6.48a2.92,2.92,0,0,0-.22-1.28,1.58,1.58,0,0,0-1.56-.82,1.94,1.94,0,0,0-1.95,1.2,4.15,4.15,0,0,0-.27,1.62V255H152.4V244.38h2.68v1.55a4.66,4.66,0,0,1,1-1.18A3.52,3.52,0,0,1,158.27,244.1Zm10.26,0a3.38,3.38,0,0,1,1.72.43,3.34,3.34,0,0,1,1.22,1.17v-5.08h2.82V255h-2.7v-1.48a3.45,3.45,0,0,1-3.26,1.81,4,4,0,0,1-3.14-1.5,5.81,5.81,0,0,1-1.27-3.88,6.72,6.72,0,0,1,1.25-4.29A4.1,4.1,0,0,1,168.53,244.1Zm.6,8.89a2,2,0,0,0,1.8-.88,3.91,3.91,0,0,0,.62-2.28,3.48,3.48,0,0,0-1-2.79,2.11,2.11,0,0,0-1.41-.51,2,2,0,0,0-1.79.93,4.27,4.27,0,0,0-.57,2.29,4.23,4.23,0,0,0,.58,2.36A2,2,0,0,0,169.13,253Zm8.6-12.34h3.06v3.66L180,251h-1.45l-.81-6.71Zm.07,11.53h2.91V255H177.8Z"/><path class="cls-2" d="M112,188A94,94,0,1,0,18,94,94,94,0,0,0,112,188Z"/><rect class="cls-3" x="64.23" y="27.07" width="97.55" height="121.44" rx="16"/><rect x="72.85" y="42.74" width="50" height="4.56" rx="2.28"/><rect class="cls-4" x="72.85" y="65.29" width="78.33" height="4.56" rx="2.28"/><rect class="cls-4" x="72.85" y="87.85" width="78.33" height="4.56" rx="2.28"/><rect class="cls-4" x="72.85" y="110.41" width="78.33" height="4.56" rx="2.28"/><path class="cls-4" d="M75.13,133h73.78a2.28,2.28,0,0,1,2.27,2.28h0a2.28,2.28,0,0,1-2.27,2.28H75.13a2.28,2.28,0,0,1-2.28-2.28h0A2.28,2.28,0,0,1,75.13,133Z"/><path class="cls-1" d="M220.24,13.65H173.17a4.08,4.08,0,0,0-4,4.18V41.11a4.08,4.08,0,0,0,4,4.18h47.07a4.08,4.08,0,0,0,4-4.18V17.83A4.08,4.08,0,0,0,220.24,13.65Z"/><path class="cls-5" d="M181,34.47a4.7,4.7,0,1,0-4.7-4.7A4.7,4.7,0,0,0,181,34.47Z"/><path class="cls-4" d="M196.62,25.07h15.66a4.69,4.69,0,0,1,4.7,4.7h0a4.7,4.7,0,0,1-4.7,4.7H196.62a4.7,4.7,0,0,1-4.7-4.7h0A4.69,4.69,0,0,1,196.62,25.07Z"/><path class="cls-6" d="M139.52,154a48.75,48.75,0,0,0,27.26-8.29l31.88,30.43,11.56-13.41-30.76-29.37A49,49,0,1,0,139.52,154Zm41.76-49a41.45,41.45,0,1,1-41.45-41.45A41.44,41.44,0,0,1,181.28,105Z"/><path class="cls-7" d="M139.83,147.27A42.3,42.3,0,1,0,97.13,105,42.5,42.5,0,0,0,139.83,147.27Z"/><path class="cls-8" d="M147.21,105l10.33-10.29a5.4,5.4,0,0,0-7.65-7.61L139.53,97.36,129.2,87.07a5.41,5.41,0,0,0-6-1.29,5.37,5.37,0,0,0-1.68,8.9L131.9,105l-10.35,10.29a5.39,5.39,0,1,0,7.65,7.6l10.35-10.29,10.36,10.29a5.41,5.41,0,0,0,9-3.87,5.38,5.38,0,0,0-1.36-3.73Z"/><path class="cls-9" d="M198.66,176.13l11.56-13.42,1.74,1.66a9.4,9.4,0,0,1,.59,12.79h0a8.43,8.43,0,0,1-6,3,8.32,8.32,0,0,1-6.2-2.34l-1.74-1.66Z"/><path class="cls-10" d="M38.63,48.7a15.22,15.22,0,0,0-.44-3.38c-1-4-5.36-6.53-10-7.13s-9.52.76-11.39,4.22A6.59,6.59,0,0,0,16,47.54a6.68,6.68,0,0,0,2.87,3.54c3.91,2.58,10.75,3.1,13.87,2A34.15,34.15,0,0,0,37,51.32c-.78,4.5-3.71,8.76-7.61,12.61C20.86,72.28,7.69,78.62.51,81a.77.77,0,0,0-.48,1,.73.73,0,0,0,.92.5C8.26,80,21.69,73.55,30.35,65c4.47-4.4,7.65-9.35,8.2-14.56C48.66,44.84,57,34.61,64.06,26A.78.78,0,0,0,64,24.92.7.7,0,0,0,63,25C56.14,33.26,48.24,43.08,38.63,48.7Zm-1.47.82a13.16,13.16,0,0,0-.38-3.82c-.85-3.44-4.76-5.48-8.8-6a13,13,0,0,0-7,.88,6.05,6.05,0,0,0-2.91,2.59,5,5,0,0,0-.66,3.91,5.15,5.15,0,0,0,2.25,2.71c3.56,2.35,9.79,2.85,12.64,1.87A34.56,34.56,0,0,0,37.16,49.52Z"/><circle class="cls-11" cx="217.77" cy="121.42" r="4.7"/><path class="cls-6" d="M40.25,153.84a7.47,7.47,0,0,0,2.4-1.34A4.6,4.6,0,0,0,44,149.88c.29-1.25.4-2.58.74-3.84a1.22,1.22,0,0,1,.48-.72,1.11,1.11,0,0,1,.79-.22,1.14,1.14,0,0,1,1,.66,1.4,1.4,0,0,1,.12.35c0,.12,0,.48.07.63.06.37.12.74.17,1.1a10.75,10.75,0,0,0,.8,3.41,5.24,5.24,0,0,0,2.45,2.88,5.89,5.89,0,0,0,3.57,0l.42-.09a1.2,1.2,0,0,1,1.38,1,1.26,1.26,0,0,1-.92,1.48l-.39.09a12.55,12.55,0,0,0-5.6,4c-.41.5-1,1.89-1.63,2.78a3.23,3.23,0,0,1-1.38,1.23,1.25,1.25,0,0,1-.73,0,1.21,1.21,0,0,1-.71-.51,1.35,1.35,0,0,1-.24-.58,5,5,0,0,1,0-.55c-.13-.45-.28-.9-.39-1.35A7.89,7.89,0,0,0,42.56,159a4.86,4.86,0,0,0-2.11-1.81c-.12,0-1.08-.28-1.41-.42a1.58,1.58,0,0,1-.82-.74,1.54,1.54,0,0,1-.13-.83,1.37,1.37,0,0,1,.45-.87,1.52,1.52,0,0,1,.72-.36C39.5,153.88,40.16,153.85,40.25,153.84Zm5.62-1.77c0,.1.09.21.14.31,1.07,2.25,2.26,3.5,3.71,4.11l.05,0a16.71,16.71,0,0,0-2.52,2.42,13.37,13.37,0,0,0-1,1.74,10.72,10.72,0,0,0-1.69-3.18,7.25,7.25,0,0,0-1.88-2,8.1,8.1,0,0,0,1.57-1.08A6.32,6.32,0,0,0,45.87,152.07Z"/></svg>