<svg width="20" height="20" viewBox="0 0 20 20" fill="none" xmlns="http://www.w3.org/2000/svg">
<g opacity="0.5">
<path d="M16 19C17.6569 19 19 17.6569 19 16C19 14.3431 17.6569 13 16 13C14.3431 13 13 14.3431 13 16C13 17.6569 14.3431 19 16 19Z" stroke="#172243" stroke-width="2" stroke-linecap="round" stroke-linejoin="round"/>
<path d="M4 7C5.65685 7 7 5.65685 7 4C7 2.34315 5.65685 1 4 1C2.34315 1 1 2.34315 1 4C1 5.65685 2.34315 7 4 7Z" stroke="#172243" stroke-width="2" stroke-linecap="round" stroke-linejoin="round"/>
<path d="M11 4H14C14.5304 4 15.0391 4.21071 15.4142 4.58579C15.7893 4.96086 16 5.46957 16 6V13" stroke="#172243" stroke-width="2" stroke-linecap="round" stroke-linejoin="round"/>
<path d="M4 7V19" stroke="#172243" stroke-width="2" stroke-linecap="round" stroke-linejoin="round"/>
</g>
</svg>
