<svg width="250" height="197" viewBox="0 0 250 197" fill="none" xmlns="http://www.w3.org/2000/svg">
<rect width="250" height="197" rx="8" fill="#EAF5FF"/>
<path d="M152.562 89.25C159.084 89.25 164.375 84.043 164.375 77.625C164.375 71.207 159.084 66 152.562 66C146.041 66 140.75 71.207 140.75 77.625C140.75 84.043 146.041 89.25 152.562 89.25Z" fill="url(#paint0_linear_1_11)"/>
<path d="M173.234 50.5H76.7656C72.9266 50.5 69.875 53.5758 69.875 57.3539V136.646C69.875 140.424 72.9266 143.5 76.7656 143.5H173.234C177.073 143.5 180.125 140.424 180.125 136.646V57.3539C180.125 53.5758 177.073 50.5 173.234 50.5ZM147.862 98.3805C147.124 97.5328 145.992 96.8789 144.712 96.8789C143.457 96.8789 142.571 97.4602 141.562 98.2594L136.96 102.086C136 102.764 135.238 103.224 134.13 103.224C133.072 103.224 132.112 102.837 131.423 102.231C131.177 102.013 130.734 101.602 130.365 101.238L117.125 87.143C116.141 86.0289 114.664 85.3266 113.015 85.3266C111.366 85.3266 109.841 86.1258 108.881 87.2156L77.75 124.173V61.0836C77.9961 59.4367 79.3004 58.25 80.9738 58.25H169.002C170.7 58.25 172.078 59.4852 172.176 61.1562L172.25 124.222L147.862 98.3805Z" fill="url(#paint1_linear_1_11)"/>
<defs>
<linearGradient id="paint0_linear_1_11" x1="143.736" y1="67.981" x2="163.445" y2="79.285" gradientUnits="userSpaceOnUse">
<stop stop-color="#692ADC"/>
<stop offset="0.78343" stop-color="#408ED8"/>
</linearGradient>
<linearGradient id="paint1_linear_1_11" x1="90.5469" y1="50.5" x2="174.546" y2="115.905" gradientUnits="userSpaceOnUse">
<stop stop-color="#692ADC"/>
<stop offset="1" stop-color="#1AE1D9"/>
</linearGradient>
</defs>
</svg>
