<svg width="24" height="24" viewBox="0 0 24 24" fill="none" xmlns="http://www.w3.org/2000/svg">
<path fill-rule="evenodd" clip-rule="evenodd" d="M12 22.1322L8.29181 24L6.33595 20.1971L2.29181 19.4164L2.83537 15.131L0 12L2.83537 8.86898L2.29181 4.58358L6.33595 3.80292L8.29181 0L12 1.86783L15.7082 0L17.664 3.80292L21.7082 4.58358L21.1646 8.86898L24 12L21.1646 15.131L21.7082 19.4164L17.664 20.1971L15.7082 24L12 22.1322Z" fill="#692ADC"/>
<path fill-rule="evenodd" clip-rule="evenodd" d="M9.92925 13.3359L8.01563 11.4224L6.32812 13.1099L8.24175 15.0235L8.2388 15.0264L9.9263 16.7139L9.92925 16.711L9.93216 16.7139L11.6197 15.0264L11.6168 15.0235L17.6402 9L15.9527 7.3125L9.92925 13.3359Z" fill="white"/>
</svg>
