<svg width="30" height="30" viewBox="0 0 30 30" fill="none" xmlns="http://www.w3.org/2000/svg">
<path d="M15.2884 29.782C23.3572 29.782 29.8982 23.241 29.8982 15.1722C29.8982 7.1035 23.3572 0.5625 15.2884 0.5625C7.21971 0.5625 0.678711 7.1035 0.678711 15.1722C0.678711 23.241 7.21971 29.782 15.2884 29.782Z" fill="#FF4500"/>
<path d="M25.0275 15.172C25.0275 13.993 24.0706 13.0361 22.8915 13.0361C22.3106 13.0361 21.7979 13.2583 21.422 13.6342C19.9696 12.5919 17.9533 11.9084 15.7319 11.8229L16.7059 7.26059L19.867 7.92698C19.9012 8.73012 20.5676 9.37945 21.3878 9.37945C22.2251 9.37945 22.9086 8.69594 22.9086 7.85867C22.9086 7.02135 22.2251 6.33789 21.3878 6.33789C20.7898 6.33789 20.2771 6.67962 20.038 7.19222L16.5009 6.44039C16.3983 6.42332 16.2958 6.44039 16.2104 6.49164C16.125 6.54294 16.0736 6.62837 16.0395 6.73087L14.963 11.8229C12.6904 11.8913 10.657 12.5577 9.18744 13.6342C8.81152 13.2753 8.28181 13.0361 7.71791 13.0361C6.53891 13.0361 5.58203 13.993 5.58203 15.172C5.58203 16.0435 6.09463 16.7783 6.84646 17.12C6.81227 17.3251 6.79521 17.5472 6.79521 17.7693C6.79521 21.0501 10.6057 23.6986 15.3218 23.6986C20.038 23.6986 23.8484 21.0501 23.8484 17.7693C23.8484 17.5472 23.8314 17.3422 23.7972 17.1371C24.4978 16.7954 25.0275 16.0435 25.0275 15.172ZM10.4177 16.6928C10.4177 15.8556 11.1013 15.172 11.9385 15.172C12.7758 15.172 13.4593 15.8556 13.4593 16.6928C13.4593 17.5301 12.7758 18.2136 11.9385 18.2136C11.1013 18.2136 10.4177 17.5301 10.4177 16.6928ZM18.9102 20.7084C17.8678 21.7507 15.8857 21.8191 15.3048 21.8191C14.7238 21.8191 12.7245 21.7336 11.6993 20.7084C11.5455 20.5546 11.5455 20.2983 11.6993 20.1445C11.8531 19.9907 12.1094 19.9907 12.2632 20.1445C12.9125 20.7938 14.3137 21.0331 15.3218 21.0331C16.33 21.0331 17.714 20.7938 18.3804 20.1445C18.5342 19.9907 18.7905 19.9907 18.9443 20.1445C19.064 20.3154 19.064 20.5546 18.9102 20.7084ZM18.6368 18.2136C17.7995 18.2136 17.116 17.5301 17.116 16.6928C17.116 15.8556 17.7995 15.172 18.6368 15.172C19.4741 15.172 20.1576 15.8556 20.1576 16.6928C20.1576 17.5301 19.4741 18.2136 18.6368 18.2136Z" fill="white"/>
</svg>
