<svg width="19" height="19" viewBox="0 0 19 19" fill="none" xmlns="http://www.w3.org/2000/svg">
<path d="M6.47892 8.17225H1.88961C1.42494 8.17182 0.979416 7.98708 0.650795 7.65856C0.322174 7.33004 0.137294 6.88458 0.136719 6.41991V1.8876C0.137294 1.42293 0.322174 0.977466 0.650795 0.648946C0.979416 0.320427 1.42494 0.135685 1.88961 0.135254H6.47892C6.94349 0.135829 7.38888 0.320634 7.71738 0.649138C8.04588 0.977642 8.23069 1.42302 8.23126 1.8876V6.41991C8.23069 6.88449 8.04588 7.32987 7.71738 7.65837C7.38888 7.98687 6.94349 8.17168 6.47892 8.17225ZM1.88961 1.4924C1.78479 1.49254 1.68429 1.53421 1.61012 1.60827C1.53595 1.68234 1.49415 1.78278 1.49386 1.8876V6.41991C1.49415 6.52473 1.53595 6.62517 1.61012 6.69923C1.68429 6.7733 1.78479 6.81497 1.88961 6.81511H6.47892C6.58369 6.81497 6.68413 6.77328 6.75821 6.6992C6.83229 6.62512 6.87398 6.52468 6.87412 6.41991V1.8876C6.87398 1.78283 6.83229 1.68239 6.75821 1.60831C6.68413 1.53422 6.58369 1.49254 6.47892 1.4924H1.88961Z" fill="#172243"/>
<path d="M6.4965 18.8639H1.90718C1.44246 18.8633 0.996945 18.6785 0.66834 18.3499C0.339735 18.0213 0.154871 17.5757 0.154297 17.111V12.5792C0.154872 12.1146 0.339752 11.6691 0.668373 11.3406C0.996994 11.0121 1.44251 10.8273 1.90718 10.8269H6.4965C6.96088 10.8278 7.40598 11.0127 7.73425 11.3412C8.06252 11.6696 8.24718 12.1149 8.24775 12.5792V17.111C8.24732 17.5755 8.06273 18.0209 7.73445 18.3494C7.40616 18.678 6.96098 18.863 6.4965 18.8639ZM1.90718 12.184C1.80236 12.1842 1.70187 12.2259 1.6277 12.2999C1.55353 12.374 1.51173 12.4744 1.51144 12.5792V17.111C1.51158 17.2159 1.55332 17.3165 1.62751 17.3907C1.70169 17.4649 1.80227 17.5066 1.90718 17.5068H6.4965C6.60132 17.5065 6.70175 17.4647 6.77582 17.3905C6.84989 17.3163 6.89155 17.2158 6.8917 17.111V12.5792C6.89155 12.4745 6.84987 12.374 6.77579 12.3C6.7017 12.2259 6.60127 12.1842 6.4965 12.184H1.90718Z" fill="#172243"/>
<path d="M17.1098 18.8639H12.5205C12.0557 18.8633 11.6102 18.6785 11.2816 18.3499C10.953 18.0213 10.7682 17.5757 10.7676 17.111V12.5792C10.7682 12.1146 10.953 11.6691 11.2817 11.3406C11.6103 11.0121 12.0558 10.8273 12.5205 10.8269H17.1098C17.5744 10.8275 18.0197 11.0123 18.3482 11.3408C18.6767 11.6693 18.8615 12.1147 18.8621 12.5792V17.111C18.8617 17.5757 18.6769 18.0212 18.3484 18.3498C18.0199 18.6784 17.5744 18.8633 17.1098 18.8639ZM12.5205 12.1868C12.4156 12.1869 12.3152 12.2286 12.241 12.3026C12.1668 12.3767 12.125 12.4771 12.1247 12.582V17.1137C12.1249 17.2186 12.1666 17.3192 12.2408 17.3934C12.315 17.4676 12.4156 17.5093 12.5205 17.5095H17.1098C17.2146 17.5092 17.315 17.4674 17.3891 17.3932C17.4632 17.319 17.5048 17.2186 17.505 17.1137V12.5792C17.5048 12.4745 17.4632 12.374 17.3891 12.3C17.315 12.2259 17.2145 12.1842 17.1098 12.184L12.5205 12.1868Z" fill="#172243"/>
<path d="M14.8203 8.17309C14.0271 8.1672 13.2534 7.92659 12.5967 7.48162C11.94 7.03664 11.4298 6.4072 11.1303 5.67267C10.8308 4.93813 10.7555 4.13137 10.9139 3.3541C11.0722 2.57683 11.4572 1.86384 12.0201 1.30501C12.5831 0.74619 13.2989 0.366548 14.0774 0.21395C14.8558 0.0613527 15.662 0.14263 16.3943 0.447536C17.1266 0.752441 17.7522 1.26733 18.1923 1.92728C18.6324 2.58723 18.8673 3.36271 18.8673 4.15595C18.862 5.2249 18.4329 6.24811 17.6743 7.00118C16.9156 7.75425 15.8893 8.17569 14.8203 8.17309ZM14.8203 1.49595C14.2955 1.50184 13.7842 1.66284 13.3507 1.95868C12.9172 2.25452 12.5809 2.67199 12.3842 3.15853C12.1874 3.64507 12.139 4.17894 12.245 4.69295C12.3509 5.20696 12.6066 5.67813 12.9798 6.04715C13.3529 6.41618 13.8269 6.66657 14.3421 6.76681C14.8573 6.86705 15.3906 6.81266 15.8749 6.61048C16.3592 6.40831 16.7729 6.06738 17.0639 5.63062C17.3548 5.19385 17.5101 4.68077 17.5102 4.15595C17.5058 3.44638 17.2202 2.7675 16.7159 2.26829C16.2116 1.76909 15.5299 1.49035 14.8203 1.49324V1.49595Z" fill="#172243"/>
</svg>
