<svg width="16" height="17" viewBox="0 0 16 17" fill="none" xmlns="http://www.w3.org/2000/svg">
<path d="M13.0357 11.0622C12.2674 11.0622 11.5764 11.3854 11.0858 11.9012L5.35319 9.09455C5.37291 8.96268 5.38648 8.8292 5.38648 8.69184C5.38648 8.55803 5.37355 8.42746 5.35481 8.29915L11.079 5.52317C11.57 6.0432 12.2642 6.36963 13.0357 6.36963C14.5231 6.36963 15.7289 5.16377 15.7289 3.67639C15.7289 2.1887 14.5231 0.983154 13.0357 0.983154C11.5483 0.983154 10.3425 2.1887 10.3425 3.67639C10.3425 3.8102 10.3554 3.94045 10.3741 4.06908L4.6499 6.84506C4.15896 6.32503 3.46505 5.9986 2.69324 5.9986C1.20554 5.9986 0 7.20447 0 8.69184C0 10.1795 1.20554 11.3851 2.69324 11.3851C3.46149 11.3851 4.1525 11.0619 4.64312 10.546L10.3757 13.3527C10.356 13.4843 10.3425 13.6181 10.3425 13.7554C10.3425 15.2431 11.5483 16.4487 13.0357 16.4487C14.5231 16.4487 15.7289 15.2431 15.7289 13.7554C15.7289 12.2677 14.5231 11.0622 13.0357 11.0622Z" fill="#692ADC"/>
</svg>
