<svg width="56" height="57" viewBox="0 0 56 57" fill="none" xmlns="http://www.w3.org/2000/svg">
<path d="M27.744 0.755615C12.4212 0.755615 0 13.1768 0 28.4996C0 43.8224 12.4212 56.2436 27.744 56.2436C43.0668 56.2436 55.488 43.8224 55.488 28.4996C55.488 13.1768 43.0668 0.755615 27.744 0.755615Z" fill="#692ADC"/>
<path d="M19.5898 21.338C19.5898 13.9053 25.6153 7.87988 33.048 7.87988V7.87988C40.4807 7.87988 46.5061 13.9053 46.5061 21.338V37.4585H19.5898V21.338Z" fill="#80FFDB"/>
<path d="M19.5894 43.8125C19.5894 46.7427 17.2141 49.118 14.284 49.118V49.118C11.3539 49.118 8.97852 46.7427 8.97852 43.8125V37.458H19.5894V43.8125Z" fill="#80FFDB"/>
<path d="M8.80588 27.2856H5.83496V35.1638H8.80588C11.1242 35.1638 12.8016 33.5095 12.8016 31.2247C12.8016 28.9399 11.1242 27.2856 8.80588 27.2856ZM8.77236 33.5882H7.53428V28.8723H8.77236C10.1226 28.8723 11.0572 29.8288 11.0572 31.2247C11.0572 32.5975 10.1226 33.5882 8.77236 33.5882Z" fill="#FAFAFA"/>
<path d="M16.3785 35.3213C18.0107 35.3213 19.361 34.4994 19.361 32.8001C19.361 31.0331 17.8529 30.6615 16.66 30.358C15.8161 30.1552 15.1404 29.9864 15.1404 29.435C15.1404 28.9171 15.6918 28.6807 16.2432 28.6807C16.8848 28.6807 17.4478 28.9963 17.4478 29.6824H19.1245C19.1245 28.1067 18.1003 27.1392 16.2883 27.1392C14.5439 27.1392 13.4301 27.9946 13.4301 29.5026C13.4301 31.2019 14.8705 31.551 16.0635 31.8435C16.9189 32.0348 17.6391 32.2036 17.6391 32.8226C17.6391 33.4076 17.0091 33.7457 16.3675 33.7457C15.6693 33.7457 15.0392 33.374 15.0392 32.6198H13.3174C13.3174 34.3081 14.5664 35.3213 16.3785 35.3213Z" fill="#FAFAFA"/>
<path d="M23.1846 33.7014C22.5766 33.7014 22.239 33.3638 22.239 32.7783V30.4149H23.8932V29.0866H22.2165V27.511H21.9015L19.5039 30.0548V30.4149H20.5957V33.0031C20.5957 34.3429 21.4171 35.1643 22.7569 35.1643H23.9273V33.7014H23.1846Z" fill="#172243"/>
<path d="M29.6026 29.086L29.4332 29.66C28.9044 29.1987 28.2183 28.9172 27.4299 28.9172C25.6069 28.9172 24.2451 30.2906 24.2451 32.1251C24.2451 33.9597 25.6069 35.344 27.4299 35.344C28.2067 35.344 28.8818 35.0735 29.3997 34.6123L29.546 35.1637H30.8291V29.086H29.6026ZM27.5651 33.7904C26.6086 33.7904 25.9109 33.0702 25.9109 32.1251C25.9109 31.1685 26.6086 30.4593 27.5651 30.4593C28.5217 30.4593 29.2194 31.1685 29.2194 32.1251C29.2194 33.0817 28.5217 33.7904 27.5651 33.7904Z" fill="#172243"/>
<path d="M36.914 29.086L36.6435 29.6941C36.1146 29.2103 35.4169 28.9172 34.6291 28.9172C32.9298 28.9172 31.6016 30.268 31.6016 31.9673C31.6016 33.6782 32.9298 35.0174 34.6291 35.0174C35.2817 35.0174 35.8782 34.8146 36.3625 34.477V34.7024C36.3625 35.5914 35.6759 36.1318 34.843 36.1318C34.2349 36.1318 33.5939 35.8503 33.402 35.2989H31.7703C32.0518 36.6832 33.2223 37.5271 34.8655 37.5271C36.7897 37.5271 37.9717 36.3677 37.9717 34.466V29.0976L36.914 29.086ZM34.8204 33.543C33.9199 33.543 33.2674 32.8788 33.2674 31.9789C33.2674 31.0668 33.9199 30.4033 34.8204 30.4033C35.721 30.4033 36.3735 31.0668 36.3735 31.9789C36.3735 32.8788 35.721 33.543 34.8204 33.543Z" fill="#172243"/>
<path d="M45.0525 32.1136C45.0525 30.3582 43.7694 28.9172 41.9013 28.9172C40.1008 28.9172 38.75 30.3015 38.75 32.1251C38.75 33.9481 40.1118 35.344 41.9013 35.344C43.3197 35.344 44.4786 34.4996 44.9173 33.1719H43.1954C42.948 33.6106 42.4752 33.8805 41.9013 33.8805C41.1025 33.8805 40.562 33.4193 40.4158 32.5864H45.019C45.0415 32.4286 45.0525 32.2714 45.0525 32.1136ZM41.9013 30.3241C42.644 30.3241 43.1729 30.7293 43.4093 31.472H40.4609C40.6522 30.7518 41.1695 30.3241 41.9013 30.3241Z" fill="#172243"/>
</svg>
