<svg width="94" height="87" viewBox="0 0 94 87" fill="none" xmlns="http://www.w3.org/2000/svg">
<rect width="94" height="87" rx="8.83809" fill="#EAF5FF"/>
<path d="M58.9702 31.185L61.9367 28.2184L64.8236 31.1054L61.8571 34.0719C64.7885 37.7411 66.2036 42.3935 65.812 47.0735C65.4203 51.7535 63.2516 56.106 59.7511 59.2369C56.2507 62.3679 51.6842 64.0397 46.9897 63.909C42.2951 63.7783 37.8287 61.855 34.5079 58.5342C31.1871 55.2133 29.2638 50.747 29.1331 46.0524C29.0024 41.3579 30.6742 36.7914 33.8052 33.291C36.9361 29.7905 41.2886 27.6218 45.9686 27.2301C50.6486 26.8385 55.301 28.2536 58.9702 31.185ZM45.4584 35.3337V47.5837H49.5418V35.3337H45.4584ZM39.3334 21.042H55.6668V25.1253H39.3334V21.042Z" fill="url(#paint0_linear_1875_703)"/>
<defs>
<linearGradient id="paint0_linear_1875_703" x1="36.0166" y1="21.042" x2="71.7431" y2="23.9372" gradientUnits="userSpaceOnUse">
<stop stop-color="#692ADC"/>
<stop offset="0.820595" stop-color="#0ED0C8"/>
</linearGradient>
</defs>
</svg>
