<svg width="16" height="17" viewBox="0 0 16 17" fill="none" xmlns="http://www.w3.org/2000/svg">
<path fill-rule="evenodd" clip-rule="evenodd" d="M8.98631 1.53369L13.2021 2.43392C14.0122 2.60692 14.5288 3.40393 14.3558 4.21409L13.0967 10.1104C12.9237 10.9206 12.1267 11.4371 11.3165 11.2641L10.151 11.0152V12.5491L11.0032 12.7311C12.6236 13.0771 14.2176 12.044 14.5636 10.4237L15.8227 4.52734C16.1687 2.90702 15.1356 1.31299 13.5153 0.966993L9.29955 0.0667631C7.67923 -0.279238 6.08521 0.753801 5.7392 2.37412L5.18555 4.9669H6.71936L7.20613 2.68737C7.37913 1.87721 8.17614 1.36069 8.98631 1.53369Z" fill="#343736"/>
<rect x="0.75" y="5.57788" width="8.5" height="10.5" rx="2.25" stroke="#343736" stroke-width="1.5"/>
</svg>
