<svg width="51" height="52" viewBox="0 0 51 52" fill="none" xmlns="http://www.w3.org/2000/svg">
<g clip-path="url(#clip0_87_5811)">
<path d="M50.9874 10.4225C49.1116 11.2561 47.097 11.8187 44.9789 12.0689C47.1385 10.7748 48.7976 8.72519 49.5801 6.28356C47.5576 7.48047 45.32 8.35384 42.9373 8.82081C41.028 6.78878 38.3091 5.51855 35.2985 5.51855C29.5211 5.51855 24.8403 10.201 24.8403 15.9784C24.8403 16.7976 24.9311 17.5976 25.1096 18.3626C16.4157 17.9259 8.70828 13.7615 3.5477 7.43265C2.64882 8.9786 2.13244 10.7748 2.13244 12.692C2.13244 16.3226 3.97961 19.5229 6.78461 21.4003C5.07133 21.3445 3.45845 20.876 2.04797 20.0918C2.04638 20.1349 2.04638 20.1811 2.04638 20.2225C2.04638 25.2923 5.65145 29.5205 10.4375 30.4815C9.56094 30.719 8.63656 30.8481 7.6819 30.8481C7.00615 30.8481 6.35271 30.7828 5.7152 30.6616C7.0444 34.815 10.9093 37.8399 15.4849 37.926C11.9069 40.731 7.39662 42.406 2.49582 42.406C1.65113 42.406 0.817596 42.3566 0 42.2594C4.62826 45.2238 10.1267 46.9562 16.0348 46.9562C35.2746 46.9562 45.7981 31.017 45.7981 17.1928C45.7981 16.7402 45.7854 16.2876 45.7663 15.8381C47.8111 14.3639 49.5833 12.5231 50.9874 10.4225Z" fill="#55ACEE"/>
</g>
<defs>
<clipPath id="clip0_87_5811">
<rect width="51.0002" height="51.0002" fill="white" transform="translate(0 0.737305)"/>
</clipPath>
</defs>
</svg>
