<svg width="25" height="37" viewBox="0 0 25 37" fill="none" xmlns="http://www.w3.org/2000/svg">
<path d="M19.549 13.873V7.40942C19.549 5.45028 18.7707 3.57137 17.3854 2.18605C16.0001 0.800728 14.1212 0.0224609 12.162 0.0224609C10.2029 0.0224609 8.32397 0.800728 6.93864 2.18605C5.55332 3.57137 4.77505 5.45028 4.77505 7.40942C4.77505 7.8992 4.96962 8.36893 5.31595 8.71526C5.66228 9.06159 6.13201 9.25616 6.62179 9.25616C7.11158 9.25616 7.5813 9.06159 7.92763 8.71526C8.27396 8.36893 8.46853 7.8992 8.46853 7.40942C8.46853 6.42985 8.85767 5.4904 9.55033 4.79773C10.243 4.10507 11.1824 3.71594 12.162 3.71594C13.1416 3.71594 14.081 4.10507 14.7737 4.79773C15.4664 5.4904 15.8555 6.42985 15.8555 7.40942V13.873H4.77505C3.55059 13.873 2.37627 14.3594 1.51045 15.2253C0.64462 16.0911 0.158203 17.2654 0.158203 18.4899V31.417C0.158203 32.6415 0.64462 33.8158 1.51045 34.6816C2.37627 35.5475 3.55059 36.0339 4.77505 36.0339H19.549C20.7734 36.0339 21.9477 35.5475 22.8136 34.6816C23.6794 33.8158 24.1658 32.6415 24.1658 31.417V18.4899C24.1658 17.2654 23.6794 16.0911 22.8136 15.2253C21.9477 14.3594 20.7734 13.873 19.549 13.873ZM14.0087 27.2065V27.7236C14.0087 28.2133 13.8142 28.6831 13.4679 29.0294C13.1215 29.3757 12.6518 29.5703 12.162 29.5703C11.6722 29.5703 11.2025 29.3757 10.8562 29.0294C10.5098 28.6831 10.3153 28.2133 10.3153 27.7236V27.2065C9.75705 26.8842 9.29288 26.4214 8.9689 25.8642C8.64493 25.307 8.47242 24.6746 8.46853 24.0301C8.46853 23.0505 8.85767 22.1111 9.55033 21.4184C10.243 20.7257 11.1824 20.3366 12.162 20.3366C13.1416 20.3366 14.081 20.7257 14.7737 21.4184C15.4664 22.1111 15.8555 23.0505 15.8555 24.0301C15.8516 24.6746 15.6791 25.307 15.3551 25.8642C15.0311 26.4214 14.567 26.8842 14.0087 27.2065Z" fill="url(#paint0_linear_1944_1299)"/>
<defs>
<linearGradient id="paint0_linear_1944_1299" x1="4.65963" y1="0.0224581" x2="27.8863" y2="4.4879" gradientUnits="userSpaceOnUse">
<stop stop-color="#692ADC"/>
<stop offset="0.820595" stop-color="#0ED0C8"/>
</linearGradient>
</defs>
</svg>
