<svg width="56" height="56" viewBox="0 0 56 56" fill="none" xmlns="http://www.w3.org/2000/svg">
<circle opacity="0.1" cx="27.8425" cy="27.8425" r="27.8425" fill="#692ADC"/>
<g clip-path="url(#clip0_39_178)">
<path d="M37.3333 12H18.6667C16.8992 12.0021 15.2047 12.7052 13.955 13.955C12.7052 15.2047 12.0021 16.8992 12 18.6667L12 37.3333C12.0021 39.1008 12.7052 40.7953 13.955 42.045C15.2047 43.2948 16.8992 43.9979 18.6667 44H37.3333C39.1008 43.9979 40.7953 43.2948 42.045 42.045C43.2948 40.7953 43.9979 39.1008 44 37.3333V18.6667C43.9979 16.8992 43.2948 15.2047 42.045 13.955C40.7953 12.7052 39.1008 12.0021 37.3333 12V12ZM38.6667 26.6667H41.3333V29.3333H38.6667V26.6667ZM38.6667 24V21.3333H41.3333V24H38.6667ZM36 26.6667H20V14.6667H36V26.6667ZM17.3333 29.3333H14.6667V26.6667H17.3333V29.3333ZM17.3333 24H14.6667V21.3333H17.3333V24ZM14.6667 32H17.3333V34.6667H14.6667V32ZM20 29.3333H36V41.3333H20V29.3333ZM38.6667 32H41.3333V34.6667H38.6667V32ZM41.3333 18.6667H38.6667V14.912C39.4439 15.1868 40.1172 15.695 40.5945 16.3671C41.0719 17.0392 41.3299 17.8423 41.3333 18.6667ZM17.3333 14.912V18.6667H14.6667C14.6701 17.8423 14.9281 17.0392 15.4055 16.3671C15.8828 15.695 16.5561 15.1868 17.3333 14.912ZM14.6667 37.3333H17.3333V41.088C16.5561 40.8132 15.8828 40.305 15.4055 39.6329C14.9281 38.9608 14.6701 38.1577 14.6667 37.3333ZM38.6667 41.088V37.3333H41.3333C41.3299 38.1577 41.0719 38.9608 40.5945 39.6329C40.1172 40.305 39.4439 40.8132 38.6667 41.088V41.088Z" fill="#692ADC"/>
</g>
<defs>
<clipPath id="clip0_39_178">
<rect width="32" height="32" fill="white" transform="translate(12 12)"/>
</clipPath>
</defs>
</svg>
