<svg width="25" height="25" viewBox="0 0 25 25" fill="none" xmlns="http://www.w3.org/2000/svg">
<path d="M9.75 4.25V7H2.875V22.125H18V15.25H20.75V23.5C20.75 23.8647 20.6051 24.2144 20.3473 24.4723C20.0894 24.7301 19.7397 24.875 19.375 24.875H1.5C1.13533 24.875 0.785591 24.7301 0.527728 24.4723C0.269866 24.2144 0.125 23.8647 0.125 23.5V5.625C0.125 5.26033 0.269866 4.91059 0.527728 4.65273C0.785591 4.39487 1.13533 4.25 1.5 4.25H9.75ZM24.875 0.125V11.125H22.125V4.81787L11.4096 15.5346L9.46537 13.5904L20.1794 2.875H13.875V0.125H24.875Z" fill="#692ADC"/>
</svg>
